<svg xmlns="http://www.w3.org/2000/svg" viewBox="0 0 319.64 661.36"><defs><style>.cls-1{fill:#d4eef9;}.cls-2{fill:#29abe2;}.cls-3{fill:#7fcdee;}.cls-4{fill:#1f80aa;}.cls-5{fill:#a9ddf3;}.cls-6{fill:#54bce8;}.cls-7{fill:#155671;}.cls-8{fill:#eaf7fc;}.cls-9{fill:#f4fbfe;}.cls-10{fill:#cce3f2;}.cls-11{fill:#dbebf6;}.cls-12{fill:#bfdbee;}.cls-13{fill:#e5f1f8;}.cls-14{fill:#99c6e4;}.cls-15{fill:#b2d4eb;}.cls-16{fill:#d1d0e0;}.cls-17{fill:#a4a1c1;}.cls-18{fill:#e8e7ef;}.cls-19{fill:#bbb8d0;}.cls-20{fill:#7672a2;}.cls-21{fill:#8d89b1;}.cls-22{fill:#f4f3f7;}.cls-23{fill:#494383;}</style></defs><title>Asset 4</title><g id="Layer_2" data-name="Layer 2"><g id="Vrstva_1" data-name="Vrstva 1"><polygon class="cls-1" points="158.55 45.73 158.52 324.18 238.9 370.59 238.9 92.12 158.55 45.73"/><polygon class="cls-2" points="174.59 73.36 174.59 91.92 190.7 101.18 190.67 82.64 174.59 73.36"/><polygon class="cls-3" points="178.06 90.03 178.06 75.36 174.59 73.36 174.59 91.92 190.7 101.18 190.69 97.3 178.06 90.03"/><polygon class="cls-4" points="190.69 97.3 190.67 82.64 178.06 75.36 178.06 90.03 190.69 97.3"/><polygon class="cls-3" points="171.82 93.47 187.93 102.74 190.7 101.18 174.59 91.92 171.82 93.47"/><polygon class="cls-2" points="174.59 110.85 174.59 129.41 190.7 138.68 190.67 120.13 174.59 110.85"/><polygon class="cls-3" points="178.06 127.53 178.06 112.86 174.59 110.85 174.59 129.41 190.7 138.68 190.69 134.79 178.06 127.53"/><polygon class="cls-4" points="190.69 134.79 190.67 120.13 178.06 112.86 178.06 127.53 190.69 134.79"/><polygon class="cls-3" points="171.82 130.97 187.93 140.23 190.7 138.68 174.59 129.41 171.82 130.97"/><polygon class="cls-2" points="174.59 148.35 174.59 166.91 190.7 176.17 190.67 157.63 174.59 148.35"/><polygon class="cls-3" points="178.06 165.02 178.06 150.35 174.59 148.35 174.59 166.91 190.7 176.17 190.69 172.29 178.06 165.02"/><polygon class="cls-4" points="190.69 172.29 190.67 157.63 178.06 150.35 178.06 165.02 190.69 172.29"/><polygon class="cls-3" points="171.82 168.46 187.93 177.73 190.7 176.17 174.59 166.91 171.82 168.46"/><polygon class="cls-2" points="174.59 185.84 174.59 204.41 190.7 213.67 190.67 195.13 174.59 185.84"/><polygon class="cls-3" points="178.06 202.52 178.06 187.85 174.59 185.84 174.59 204.41 190.7 213.67 190.69 209.78 178.06 202.52"/><polygon class="cls-4" points="190.69 209.78 190.67 195.13 178.06 187.85 178.06 202.52 190.69 209.78"/><polygon class="cls-3" points="171.82 205.96 187.93 215.22 190.7 213.67 174.59 204.41 171.82 205.96"/><polygon class="cls-2" points="174.59 223.34 174.59 241.9 190.7 251.17 190.67 232.62 174.59 223.34"/><polygon class="cls-3" points="178.06 240.01 178.06 225.34 174.59 223.34 174.59 241.9 190.7 251.17 190.69 247.28 178.06 240.01"/><polygon class="cls-4" points="190.69 247.28 190.67 232.62 178.06 225.34 178.06 240.01 190.69 247.28"/><polygon class="cls-3" points="171.82 243.46 187.93 252.72 190.7 251.17 174.59 241.9 171.82 243.46"/><polygon class="cls-2" points="174.59 260.83 174.59 279.4 190.7 288.66 190.67 270.12 174.59 260.83"/><polygon class="cls-3" points="178.06 277.51 178.06 262.84 174.59 260.83 174.59 279.4 190.7 288.66 190.69 284.78 178.06 277.51"/><polygon class="cls-4" points="190.69 284.78 190.67 270.12 178.06 262.84 178.06 277.51 190.69 284.78"/><polygon class="cls-3" points="171.82 280.95 187.93 290.21 190.7 288.66 174.59 279.4 171.82 280.95"/><polygon class="cls-2" points="174.59 298.33 174.59 316.89 190.7 326.16 190.67 307.61 174.59 298.33"/><polygon class="cls-3" points="178.06 315.01 178.06 300.33 174.59 298.33 174.59 316.89 190.7 326.16 190.69 322.27 178.06 315.01"/><polygon class="cls-4" points="190.69 322.27 190.67 307.61 178.06 300.33 178.06 315.01 190.69 322.27"/><polygon class="cls-3" points="171.82 318.45 187.93 327.71 190.7 326.16 174.59 316.89 171.82 318.45"/><polygon class="cls-2" points="206.75 91.92 206.75 110.48 222.86 119.74 222.83 101.2 206.75 91.92"/><polygon class="cls-3" points="210.22 108.59 210.22 93.92 206.75 91.92 206.75 110.48 222.86 119.74 222.85 115.86 210.22 108.59"/><polygon class="cls-4" points="222.85 115.86 222.83 101.2 210.22 93.92 210.22 108.59 222.85 115.86"/><polygon class="cls-3" points="203.98 112.03 220.08 121.3 222.86 119.74 206.75 110.48 203.98 112.03"/><polygon class="cls-2" points="206.75 129.41 206.75 147.98 222.86 157.24 222.83 138.69 206.75 129.41"/><polygon class="cls-3" points="210.22 146.09 210.22 131.42 206.75 129.41 206.75 147.98 222.86 157.24 222.85 153.35 210.22 146.09"/><polygon class="cls-4" points="222.85 153.35 222.83 138.69 210.22 131.42 210.22 146.09 222.85 153.35"/><polygon class="cls-3" points="203.98 149.53 220.08 158.79 222.86 157.24 206.75 147.98 203.98 149.53"/><polygon class="cls-2" points="206.75 166.91 206.75 185.47 222.86 194.74 222.83 176.19 206.75 166.91"/><polygon class="cls-3" points="210.22 183.59 210.22 168.91 206.75 166.91 206.75 185.47 222.86 194.74 222.85 190.85 210.22 183.59"/><polygon class="cls-4" points="222.85 190.85 222.83 176.19 210.22 168.91 210.22 183.59 222.85 190.85"/><polygon class="cls-3" points="203.98 187.03 220.08 196.29 222.86 194.74 206.75 185.47 203.98 187.03"/><polygon class="cls-2" points="206.75 204.41 206.75 222.97 222.86 232.23 222.83 213.69 206.75 204.41"/><polygon class="cls-3" points="210.22 221.08 210.22 206.41 206.75 204.41 206.75 222.97 222.86 232.23 222.85 228.35 210.22 221.08"/><polygon class="cls-4" points="222.85 228.35 222.83 213.69 210.22 206.41 210.22 221.08 222.85 228.35"/><polygon class="cls-3" points="203.98 224.52 220.08 233.79 222.86 232.23 206.75 222.97 203.98 224.52"/><polygon class="cls-2" points="206.75 241.9 206.75 260.46 222.86 269.73 222.83 251.18 206.75 241.9"/><polygon class="cls-3" points="210.22 258.58 210.22 243.91 206.75 241.9 206.75 260.46 222.86 269.73 222.85 265.84 210.22 258.58"/><polygon class="cls-4" points="222.85 265.84 222.83 251.18 210.22 243.91 210.22 258.58 222.85 265.84"/><polygon class="cls-3" points="203.98 262.02 220.08 271.28 222.86 269.73 206.75 260.46 203.98 262.02"/><polygon class="cls-2" points="206.75 279.4 206.75 297.96 222.86 307.22 222.83 288.68 206.75 279.4"/><polygon class="cls-3" points="210.22 296.07 210.22 281.4 206.75 279.4 206.75 297.96 222.86 307.22 222.85 303.34 210.22 296.07"/><polygon class="cls-4" points="222.85 303.34 222.83 288.68 210.22 281.4 210.22 296.07 222.85 303.34"/><polygon class="cls-3" points="203.98 299.51 220.08 308.78 222.86 307.22 206.75 297.96 203.98 299.51"/><polygon class="cls-2" points="206.75 316.89 206.75 335.46 222.86 344.72 222.83 326.18 206.75 316.89"/><polygon class="cls-3" points="210.22 333.57 210.22 318.9 206.75 316.89 206.75 335.46 222.86 344.72 222.85 340.83 210.22 333.57"/><polygon class="cls-4" points="222.85 340.83 222.83 326.18 210.22 318.9 210.22 333.57 222.85 340.83"/><polygon class="cls-3" points="203.98 337.01 220.08 346.27 222.86 344.72 206.75 335.46 203.98 337.01"/><polygon class="cls-5" points="319.29 45.73 319.32 324.18 238.94 370.59 238.94 92.12 319.29 45.73"/><polygon class="cls-2" points="303.25 73.36 303.25 91.92 287.14 101.18 287.17 82.64 303.25 73.36"/><polygon class="cls-6" points="299.78 90.03 299.78 75.36 303.25 73.36 303.25 91.92 287.14 101.18 287.15 97.3 299.78 90.03"/><polygon class="cls-7" points="287.15 97.3 287.17 82.64 299.78 75.36 299.78 90.03 287.15 97.3"/><polygon class="cls-6" points="306.02 93.47 289.92 102.74 287.14 101.18 303.25 91.92 306.02 93.47"/><polygon class="cls-2" points="303.25 110.85 303.25 129.41 287.14 138.68 287.17 120.13 303.25 110.85"/><polygon class="cls-6" points="299.78 127.53 299.78 112.86 303.25 110.85 303.25 129.41 287.14 138.68 287.15 134.79 299.78 127.53"/><polygon class="cls-7" points="287.15 134.79 287.17 120.13 299.78 112.86 299.78 127.53 287.15 134.79"/><polygon class="cls-6" points="306.02 130.97 289.92 140.23 287.14 138.68 303.25 129.41 306.02 130.97"/><polygon class="cls-2" points="303.25 148.35 303.25 166.91 287.14 176.17 287.17 157.63 303.25 148.35"/><polygon class="cls-6" points="299.78 165.02 299.78 150.35 303.25 148.35 303.25 166.91 287.14 176.17 287.15 172.29 299.78 165.02"/><polygon class="cls-7" points="287.15 172.29 287.17 157.63 299.78 150.35 299.78 165.02 287.15 172.29"/><polygon class="cls-6" points="306.02 168.46 289.92 177.73 287.14 176.17 303.25 166.91 306.02 168.46"/><polygon class="cls-2" points="303.25 185.84 303.25 204.41 287.14 213.67 287.17 195.13 303.25 185.84"/><polygon class="cls-6" points="299.78 202.52 299.78 187.85 303.25 185.84 303.25 204.41 287.14 213.67 287.15 209.78 299.78 202.52"/><polygon class="cls-7" points="287.15 209.78 287.17 195.13 299.78 187.85 299.78 202.52 287.15 209.78"/><polygon class="cls-6" points="306.02 205.96 289.92 215.22 287.14 213.67 303.25 204.41 306.02 205.96"/><polygon class="cls-2" points="303.25 223.34 303.25 241.9 287.14 251.17 287.17 232.62 303.25 223.34"/><polygon class="cls-6" points="299.78 240.01 299.78 225.34 303.25 223.34 303.25 241.9 287.14 251.17 287.15 247.28 299.78 240.01"/><polygon class="cls-7" points="287.15 247.28 287.17 232.62 299.78 225.34 299.78 240.01 287.15 247.28"/><polygon class="cls-6" points="306.02 243.46 289.92 252.72 287.14 251.17 303.25 241.9 306.02 243.46"/><polygon class="cls-2" points="303.25 260.83 303.25 279.4 287.14 288.66 287.17 270.12 303.25 260.83"/><polygon class="cls-6" points="299.78 277.51 299.78 262.84 303.25 260.83 303.25 279.4 287.14 288.66 287.15 284.78 299.78 277.51"/><polygon class="cls-7" points="287.15 284.78 287.17 270.12 299.78 262.84 299.78 277.51 287.15 284.78"/><polygon class="cls-6" points="306.02 280.95 289.92 290.21 287.14 288.66 303.25 279.4 306.02 280.95"/><polygon class="cls-2" points="303.25 298.33 303.25 316.89 287.14 326.16 287.17 307.61 303.25 298.33"/><polygon class="cls-6" points="299.78 315.01 299.78 300.33 303.25 298.33 303.25 316.89 287.14 326.16 287.15 322.27 299.78 315.01"/><polygon class="cls-7" points="287.15 322.27 287.17 307.61 299.78 300.33 299.78 315.01 287.15 322.27"/><polygon class="cls-6" points="306.02 318.45 289.92 327.71 287.14 326.16 303.25 316.89 306.02 318.45"/><polygon class="cls-2" points="271.09 91.92 271.09 110.48 254.98 119.74 255.01 101.2 271.09 91.92"/><polygon class="cls-6" points="267.62 108.59 267.62 93.92 271.09 91.92 271.09 110.48 254.98 119.74 254.99 115.86 267.62 108.59"/><polygon class="cls-7" points="254.99 115.86 255.01 101.2 267.62 93.92 267.62 108.59 254.99 115.86"/><polygon class="cls-6" points="273.86 112.03 257.76 121.3 254.98 119.74 271.09 110.48 273.86 112.03"/><polygon class="cls-2" points="271.09 129.41 271.09 147.98 254.98 157.24 255.01 138.69 271.09 129.41"/><polygon class="cls-6" points="267.62 146.09 267.62 131.42 271.09 129.41 271.09 147.98 254.98 157.24 254.99 153.35 267.62 146.09"/><polygon class="cls-7" points="254.99 153.35 255.01 138.69 267.62 131.42 267.62 146.09 254.99 153.35"/><polygon class="cls-6" points="273.86 149.53 257.76 158.79 254.98 157.24 271.09 147.98 273.86 149.53"/><polygon class="cls-2" points="271.09 166.91 271.09 185.47 254.98 194.74 255.01 176.19 271.09 166.91"/><polygon class="cls-6" points="267.62 183.59 267.62 168.91 271.09 166.91 271.09 185.47 254.98 194.74 254.99 190.85 267.62 183.59"/><polygon class="cls-7" points="254.99 190.85 255.01 176.19 267.62 168.91 267.62 183.59 254.99 190.85"/><polygon class="cls-6" points="273.86 187.03 257.76 196.29 254.98 194.74 271.09 185.47 273.86 187.03"/><polygon class="cls-2" points="271.09 204.41 271.09 222.97 254.98 232.23 255.01 213.69 271.09 204.41"/><polygon class="cls-6" points="267.62 221.08 267.62 206.41 271.09 204.41 271.09 222.97 254.98 232.23 254.99 228.35 267.62 221.08"/><polygon class="cls-7" points="254.99 228.35 255.01 213.69 267.62 206.41 267.62 221.08 254.99 228.35"/><polygon class="cls-6" points="273.86 224.52 257.76 233.79 254.98 232.23 271.09 222.97 273.86 224.52"/><polygon class="cls-2" points="271.09 241.9 271.09 260.46 254.98 269.73 255.01 251.18 271.09 241.9"/><polygon class="cls-6" points="267.62 258.58 267.62 243.91 271.09 241.9 271.09 260.46 254.98 269.73 254.99 265.84 267.62 258.58"/><polygon class="cls-7" points="254.99 265.84 255.01 251.18 267.62 243.91 267.62 258.58 254.99 265.84"/><polygon class="cls-6" points="273.86 262.02 257.76 271.28 254.98 269.73 271.09 260.46 273.86 262.02"/><polygon class="cls-2" points="271.09 279.4 271.09 297.96 254.98 307.22 255.01 288.68 271.09 279.4"/><polygon class="cls-6" points="267.62 296.07 267.62 281.4 271.09 279.4 271.09 297.96 254.98 307.22 254.99 303.34 267.62 296.07"/><polygon class="cls-7" points="254.99 303.34 255.01 288.68 267.62 281.4 267.62 296.07 254.99 303.34"/><polygon class="cls-6" points="273.86 299.51 257.76 308.78 254.98 307.22 271.09 297.96 273.86 299.51"/><polygon class="cls-2" points="271.09 316.89 271.09 335.46 254.98 344.72 255.01 326.18 271.09 316.89"/><polygon class="cls-6" points="267.62 333.57 267.62 318.9 271.09 316.89 271.09 335.46 254.98 344.72 254.99 340.83 267.62 333.57"/><polygon class="cls-7" points="254.99 340.83 255.01 326.18 267.62 318.9 267.62 333.57 254.99 340.83"/><polygon class="cls-6" points="273.86 337.01 257.76 346.27 254.98 344.72 271.09 335.46 273.86 337.01"/><polygon class="cls-8" points="158.55 45.73 238.94 92.12 319.29 45.73 238.94 0 158.55 45.73"/><polygon class="cls-1" points="206.77 55.68 238.9 74.23 238.92 55.68 206.78 37.1 206.77 55.68"/><polygon class="cls-5" points="238.9 74.23 238.92 55.68 255.03 46.38 255.03 64.94 238.9 74.23"/><polygon class="cls-9" points="206.78 37.1 238.92 55.68 255.03 46.38 222.82 27.82 206.78 37.1"/><polygon class="cls-10" points="0.1 267.55 0 363.06 246.71 504.69 246.71 409.74 0.1 267.55"/><polygon class="cls-11" points="154.94 273.96 72.83 225.63 0 267.55 82.93 315.37 154.94 273.96"/><polygon class="cls-12" points="0 267.55 82.93 315.37 82.93 410.94 0 363.06 0 267.55"/><polygon class="cls-10" points="72.78 272.59 72.78 414.61 154.88 462.76 155.05 320.61 72.78 272.59"/><polygon class="cls-13" points="155.05 225.63 237.16 273.06 155.05 320.61 73.11 273.1 155.05 225.63"/><polygon class="cls-14" points="155.05 320.61 165.79 314.45 165.79 456.46 154.88 462.76 155.05 320.61"/><polygon class="cls-14" points="237.38 321.66 237.16 273.06 154.78 320.77 155.05 369.16 237.38 321.66"/><polygon class="cls-11" points="319.32 367.9 237.64 321.5 165.79 363.19 246.71 409.74 319.32 367.9"/><polygon class="cls-14" points="319.16 462.76 319.32 367.9 246.71 409.74 246.71 504.69 319.16 462.76"/><polygon class="cls-2" points="18.72 296.52 18.72 315.09 34.82 324.35 34.8 305.81 18.72 296.52"/><polygon class="cls-3" points="22.19 313.2 22.19 298.53 18.72 296.52 18.72 315.09 34.82 324.35 34.82 320.46 22.19 313.2"/><polygon class="cls-4" points="34.82 320.46 34.8 305.81 22.19 298.53 22.19 313.2 34.82 320.46"/><polygon class="cls-3" points="15.95 316.64 32.05 325.9 34.82 324.35 18.72 315.09 15.95 316.64"/><polygon class="cls-2" points="18.72 334.02 18.72 352.58 34.82 361.85 34.8 343.3 18.72 334.02"/><polygon class="cls-3" points="22.19 350.7 22.19 336.02 18.72 334.02 18.72 352.58 34.82 361.85 34.82 357.96 22.19 350.7"/><polygon class="cls-4" points="34.82 357.96 34.8 343.3 22.19 336.02 22.19 350.7 34.82 357.96"/><polygon class="cls-3" points="15.95 354.14 32.05 363.4 34.82 361.85 18.72 352.58 15.95 354.14"/><polygon class="cls-2" points="50.88 315.09 50.88 333.65 66.98 342.91 66.95 324.37 50.88 315.09"/><polygon class="cls-3" points="54.35 331.76 54.35 317.09 50.88 315.09 50.88 333.65 66.98 342.91 66.98 339.03 54.35 331.76"/><polygon class="cls-4" points="66.98 339.03 66.95 324.37 54.35 317.09 54.35 331.76 66.98 339.03"/><polygon class="cls-3" points="48.1 335.2 64.21 344.47 66.98 342.91 50.88 333.65 48.1 335.2"/><polygon class="cls-2" points="50.88 352.58 50.88 371.15 66.98 380.41 66.95 361.87 50.88 352.58"/><polygon class="cls-3" points="54.35 369.26 54.35 354.59 50.88 352.58 50.88 371.15 66.98 380.41 66.98 376.52 54.35 369.26"/><polygon class="cls-4" points="66.98 376.52 66.95 361.87 54.35 354.59 54.35 369.26 66.98 376.52"/><polygon class="cls-3" points="48.1 372.7 64.21 381.96 66.98 380.41 50.88 371.15 48.1 372.7"/><polygon class="cls-2" points="182.3 390.52 182.3 409.08 198.41 418.35 198.38 399.8 182.3 390.52"/><polygon class="cls-3" points="185.77 407.19 185.77 392.52 182.3 390.52 182.3 409.08 198.41 418.35 198.4 414.46 185.77 407.19"/><polygon class="cls-4" points="198.4 414.46 198.38 399.8 185.77 392.52 185.77 407.19 198.4 414.46"/><polygon class="cls-3" points="179.53 410.63 195.63 419.9 198.41 418.35 182.3 409.08 179.53 410.63"/><polygon class="cls-2" points="182.3 428.02 182.3 446.58 198.41 455.84 198.38 437.3 182.3 428.02"/><polygon class="cls-3" points="185.77 444.69 185.77 430.02 182.3 428.02 182.3 446.58 198.41 455.84 198.4 451.95 185.77 444.69"/><polygon class="cls-4" points="198.4 451.95 198.38 437.3 185.77 430.02 185.77 444.69 198.4 451.95"/><polygon class="cls-3" points="179.53 448.13 195.63 457.4 198.41 455.84 182.3 446.58 179.53 448.13"/><polygon class="cls-2" points="214.46 409.08 214.46 427.64 230.56 436.91 230.54 418.36 214.46 409.08"/><polygon class="cls-3" points="217.93 425.76 217.93 411.08 214.46 409.08 214.46 427.64 230.56 436.91 230.56 433.02 217.93 425.76"/><polygon class="cls-4" points="230.56 433.02 230.54 418.36 217.93 411.08 217.93 425.76 230.56 433.02"/><polygon class="cls-3" points="211.69 429.2 227.79 438.46 230.56 436.91 214.46 427.64 211.69 429.2"/><polygon class="cls-2" points="214.46 446.58 214.46 465.14 230.56 474.4 230.54 455.86 214.46 446.58"/><polygon class="cls-3" points="217.93 463.25 217.93 448.58 214.46 446.58 214.46 465.14 230.56 474.4 230.56 470.52 217.93 463.25"/><polygon class="cls-4" points="230.56 470.52 230.54 455.86 217.93 448.58 217.93 463.25 230.56 470.52"/><polygon class="cls-3" points="211.69 466.69 227.79 475.96 230.56 474.4 214.46 465.14 211.69 466.69"/><polygon class="cls-2" points="89.78 296.23 89.78 314.8 105.89 324.06 105.86 305.51 89.78 296.23"/><polygon class="cls-3" points="93.25 312.91 93.25 298.24 89.78 296.23 89.78 314.8 105.89 324.06 105.88 320.17 93.25 312.91"/><polygon class="cls-4" points="105.88 320.17 105.86 305.51 93.25 298.24 93.25 312.91 105.88 320.17"/><polygon class="cls-2" points="121.94 314.8 121.94 333.36 138.05 342.62 138.02 324.08 121.94 314.8"/><polygon class="cls-3" points="125.41 331.47 125.41 316.8 121.94 314.8 121.94 333.36 138.05 342.62 138.04 338.74 125.41 331.47"/><polygon class="cls-4" points="138.04 338.74 138.02 324.08 125.41 316.8 125.41 331.47 138.04 338.74"/><polygon class="cls-15" points="87.87 323.02 84.03 325.24 84.03 305.97 87.87 303.75 87.87 323.02"/><polygon class="cls-13" points="84.03 325.36 139.96 357.65 139.96 338.38 84.03 306.09 84.03 325.36"/><polygon class="cls-15" points="143.79 355.44 139.96 357.65 139.96 338.38 143.79 336.17 143.79 355.44"/><polygon class="cls-2" points="89.78 336.96 89.78 355.53 105.89 364.79 105.86 346.25 89.78 336.96"/><polygon class="cls-3" points="93.25 353.64 93.25 338.97 89.78 336.96 89.78 355.53 105.89 364.79 105.88 360.9 93.25 353.64"/><polygon class="cls-4" points="105.88 360.9 105.86 346.25 93.25 338.97 93.25 353.64 105.88 360.9"/><polygon class="cls-2" points="121.94 355.53 121.94 374.09 138.05 383.35 138.02 364.81 121.94 355.53"/><polygon class="cls-3" points="125.41 372.2 125.41 357.53 121.94 355.53 121.94 374.09 138.05 383.35 138.04 379.47 125.41 372.2"/><polygon class="cls-4" points="138.04 379.47 138.02 364.81 125.41 357.53 125.41 372.2 138.04 379.47"/><polygon class="cls-15" points="87.87 363.76 84.03 365.97 84.03 346.7 87.87 344.49 87.87 363.76"/><polygon class="cls-13" points="84.03 366.1 139.96 398.38 139.96 379.11 84.03 346.82 84.03 366.1"/><polygon class="cls-15" points="143.79 396.17 139.96 398.38 139.96 379.11 143.79 376.9 143.79 396.17"/><polygon class="cls-2" points="89.78 377.69 89.78 396.26 105.89 405.52 105.86 386.98 89.78 377.69"/><polygon class="cls-3" points="93.25 394.37 93.25 379.7 89.78 377.69 89.78 396.26 105.89 405.52 105.88 401.64 93.25 394.37"/><polygon class="cls-4" points="105.88 401.64 105.86 386.98 93.25 379.7 93.25 394.37 105.88 401.64"/><polygon class="cls-2" points="121.94 396.26 121.94 414.82 138.05 424.09 138.02 405.54 121.94 396.26"/><polygon class="cls-3" points="125.41 412.94 125.41 398.26 121.94 396.26 121.94 414.82 138.05 424.09 138.04 420.2 125.41 412.94"/><polygon class="cls-4" points="138.04 420.2 138.02 405.54 125.41 398.26 125.41 412.94 138.04 420.2"/><polygon class="cls-15" points="87.87 404.49 84.03 406.7 84.03 387.43 87.87 385.22 87.87 404.49"/><polygon class="cls-13" points="84.03 406.83 139.96 439.12 139.96 419.84 84.03 387.56 84.03 406.83"/><polygon class="cls-15" points="143.79 436.9 139.96 439.12 139.96 419.84 143.79 417.63 143.79 436.9"/><polygon class="cls-2" points="296.06 441.81 296.06 476.18 279.96 485.45 279.99 451.09 296.06 441.81"/><polygon class="cls-6" points="292.59 474.3 292.59 443.82 296.06 441.81 296.06 476.18 279.96 485.45 279.96 481.56 292.59 474.3"/><polygon class="cls-7" points="279.96 481.56 279.99 451.35 292.59 444.07 292.59 474.3 279.96 481.56"/><polygon class="cls-2" points="274.05 408.92 274.05 427.48 257.95 436.74 257.98 418.2 274.05 408.92"/><polygon class="cls-6" points="270.58 425.59 270.58 410.92 274.05 408.92 274.05 427.48 257.95 436.74 257.95 432.86 270.58 425.59"/><polygon class="cls-7" points="257.95 432.86 257.98 418.2 270.58 410.92 270.58 425.59 257.95 432.86"/><polygon class="cls-6" points="276.82 429.03 260.72 438.3 257.95 436.74 274.05 427.48 276.82 429.03"/><polygon class="cls-2" points="305.32 390.77 305.32 409.34 289.21 418.6 289.24 400.06 305.32 390.77"/><polygon class="cls-6" points="301.85 407.45 301.85 392.78 305.32 390.77 305.32 409.34 289.21 418.6 289.22 414.71 301.85 407.45"/><polygon class="cls-7" points="289.22 414.71 289.24 400.06 301.85 392.78 301.85 407.45 289.22 414.71"/><polygon class="cls-6" points="308.09 410.89 291.99 420.15 289.21 418.6 305.32 409.34 308.09 410.89"/><polygon class="cls-2" points="187.11 315.49 187.11 334.05 171.01 343.32 171.04 324.77 187.11 315.49"/><polygon class="cls-6" points="183.64 332.17 183.64 317.49 187.11 315.49 187.11 334.05 171.01 343.32 171.01 339.43 183.64 332.17"/><polygon class="cls-7" points="171.01 339.43 171.04 324.77 183.64 317.49 183.64 332.17 171.01 339.43"/><polygon class="cls-6" points="189.88 335.61 173.78 344.87 171.01 343.32 187.11 334.05 189.88 335.61"/><polygon class="cls-2" points="218.38 297.35 218.38 315.91 202.27 325.17 202.3 306.63 218.38 297.35"/><polygon class="cls-6" points="214.91 314.02 214.91 299.35 218.38 297.35 218.38 315.91 202.27 325.17 202.28 321.29 214.91 314.02"/><polygon class="cls-7" points="202.28 321.29 202.3 306.63 214.91 299.35 214.91 314.02 202.28 321.29"/><polygon class="cls-6" points="221.15 317.46 205.04 326.73 202.27 325.17 218.38 315.91 221.15 317.46"/><polygon class="cls-16" points="47.66 459.95 47.66 548.79 242.63 661.36 242.63 571.65 47.66 459.95"/><polygon class="cls-17" points="319.64 616.59 242.63 661.36 242.63 571.65 319.64 526.88 319.64 616.59"/><polygon class="cls-18" points="47.66 459.95 125.28 414.67 319.64 526.88 242.63 571.65 47.66 459.95"/><polygon class="cls-19" points="303.23 553.76 303.23 579.23 259.05 604.67 259.05 579.27 303.23 553.76"/><polygon class="cls-20" points="303.23 553.76 301.36 554.84 301.36 580.31 303.23 579.23 303.23 553.76"/><polygon class="cls-20" points="303.18 579.23 301.31 578.15 279.25 590.89 281.12 591.97 303.18 579.23"/><polygon class="cls-20" points="281.14 591.94 279.27 590.86 259.05 602.53 259.08 604.67 281.14 591.94"/><polygon class="cls-20" points="289.12 561.88 287.25 562.96 287.25 588.43 289.12 587.35 289.12 561.88"/><polygon class="cls-21" points="291 560.77 289.12 561.85 289.12 587.33 291 586.25 291 560.77"/><polygon class="cls-21" points="276.89 568.84 275.02 569.92 275.02 595.4 276.89 594.32 276.89 568.84"/><polygon class="cls-20" points="275.02 570 273.15 571.08 273.15 596.55 275.02 595.48 275.02 570"/><polygon class="cls-19" points="303.23 587.97 303.23 613.44 259.05 638.88 259.05 613.47 303.23 587.97"/><polygon class="cls-20" points="303.23 587.97 301.36 589.05 301.36 614.52 303.23 613.44 303.23 587.97"/><polygon class="cls-20" points="303.18 613.44 301.31 612.36 279.25 625.1 281.12 626.18 303.18 613.44"/><polygon class="cls-20" points="281.14 626.14 279.27 625.07 259.05 636.74 259.08 638.88 281.14 626.14"/><polygon class="cls-20" points="289.12 596.09 287.25 597.16 287.25 622.64 289.12 621.56 289.12 596.09"/><polygon class="cls-21" points="291 594.98 289.12 596.06 289.12 621.54 291 620.46 291 594.98"/><polygon class="cls-21" points="276.89 603.05 275.02 604.13 275.02 629.6 276.89 628.52 276.89 603.05"/><polygon class="cls-20" points="275.02 604.21 273.15 605.29 273.15 630.76 275.02 629.68 275.02 604.21"/><polygon class="cls-18" points="60.39 485.81 60.39 511.28 104.57 536.72 104.57 511.31 60.39 485.81"/><polygon class="cls-17" points="60.39 485.81 62.26 486.88 62.26 512.36 60.39 511.28 60.39 485.81"/><polygon class="cls-17" points="60.44 511.28 62.31 510.2 84.37 522.94 82.5 524.02 60.44 511.28"/><polygon class="cls-17" points="82.48 523.98 84.35 522.9 104.57 534.58 104.54 536.72 82.48 523.98"/><polygon class="cls-17" points="74.5 493.93 76.37 495 76.37 520.48 74.5 519.4 74.5 493.93"/><polygon class="cls-19" points="72.63 492.82 74.5 493.9 74.5 519.38 72.63 518.3 72.63 492.82"/><polygon class="cls-19" points="86.73 500.89 88.6 501.97 88.6 527.44 86.73 526.36 86.73 500.89"/><polygon class="cls-17" points="88.6 502.05 90.47 503.13 90.47 528.6 88.6 527.52 88.6 502.05"/><polygon class="cls-18" points="118.81 519.78 118.81 545.26 163 570.7 163 545.29 118.81 519.78"/><polygon class="cls-17" points="118.81 519.78 120.68 520.86 120.68 546.34 118.81 545.26 118.81 519.78"/><polygon class="cls-17" points="118.86 545.26 120.73 544.18 142.79 556.91 140.92 557.99 118.86 545.26"/><polygon class="cls-17" points="140.9 557.96 142.77 556.88 163 568.55 162.97 570.7 140.9 557.96"/><polygon class="cls-17" points="132.92 527.9 134.79 528.98 134.79 554.45 132.92 553.38 132.92 527.9"/><polygon class="cls-19" points="131.05 526.8 132.92 527.88 132.92 553.35 131.05 552.27 131.05 526.8"/><polygon class="cls-19" points="145.15 534.87 147.02 535.95 147.02 561.42 145.15 560.34 145.15 534.87"/><polygon class="cls-17" points="147.02 536.02 148.89 537.1 148.89 562.58 147.02 561.5 147.02 536.02"/><polygon class="cls-18" points="60.39 519.05 60.39 544.52 104.57 569.97 104.57 544.56 60.39 519.05"/><polygon class="cls-17" points="60.39 519.05 62.26 520.13 62.26 545.61 60.39 544.52 60.39 519.05"/><polygon class="cls-17" points="60.44 544.52 62.31 543.45 84.37 556.18 82.5 557.26 60.44 544.52"/><polygon class="cls-17" points="82.48 557.23 84.35 556.15 104.57 567.83 104.54 569.97 82.48 557.23"/><polygon class="cls-17" points="74.5 527.17 76.37 528.25 76.37 553.73 74.5 552.64 74.5 527.17"/><polygon class="cls-19" points="72.63 526.07 74.5 527.15 74.5 552.62 72.63 551.54 72.63 526.07"/><polygon class="cls-19" points="86.73 534.13 88.6 535.21 88.6 560.69 86.73 559.61 86.73 534.13"/><polygon class="cls-17" points="88.6 535.29 90.47 536.37 90.47 561.85 88.6 560.77 88.6 535.29"/><polygon class="cls-18" points="118.81 552.53 118.81 578.01 163 603.45 163 578.04 118.81 552.53"/><polygon class="cls-17" points="118.81 552.53 120.68 553.61 120.68 579.09 118.81 578.01 118.81 552.53"/><polygon class="cls-17" points="118.86 578.01 120.73 576.93 142.79 589.67 140.92 590.75 118.86 578.01"/><polygon class="cls-17" points="140.9 590.71 142.77 589.63 163 601.31 162.97 603.45 140.9 590.71"/><polygon class="cls-17" points="132.92 560.65 134.79 561.73 134.79 587.21 132.92 586.13 132.92 560.65"/><polygon class="cls-19" points="131.05 559.55 132.92 560.63 132.92 586.11 131.05 585.03 131.05 559.55"/><polygon class="cls-19" points="145.15 567.62 147.02 568.7 147.02 594.17 145.15 593.09 145.15 567.62"/><polygon class="cls-17" points="147.02 568.78 148.89 569.86 148.89 595.33 147.02 594.25 147.02 568.78"/><polygon class="cls-18" points="177.24 553.76 177.24 579.23 221.41 604.67 221.41 579.27 177.24 553.76"/><polygon class="cls-17" points="177.24 553.76 179.1 554.84 179.1 580.31 177.24 579.23 177.24 553.76"/><polygon class="cls-17" points="177.28 579.23 179.15 578.15 201.21 590.89 199.34 591.97 177.28 579.23"/><polygon class="cls-17" points="199.33 591.94 201.19 590.86 221.41 602.53 221.39 604.67 199.33 591.94"/><polygon class="cls-17" points="191.34 561.88 193.21 562.96 193.21 588.43 191.34 587.35 191.34 561.88"/><polygon class="cls-19" points="189.47 560.77 191.34 561.85 191.34 587.33 189.47 586.25 189.47 560.77"/><polygon class="cls-19" points="203.57 568.84 205.44 569.92 205.44 595.4 203.57 594.32 203.57 568.84"/><polygon class="cls-17" points="205.44 570 207.31 571.08 207.31 596.55 205.44 595.47 205.44 570"/><polygon class="cls-18" points="177.24 586.02 177.24 623.51 221.41 648.95 221.41 611.53 177.24 586.02"/><polygon class="cls-17" points="177.24 586.02 179.1 587.1 179.1 624.59 177.24 623.51 177.24 586.02"/><polygon class="cls-17" points="177.28 623.51 179.15 622.43 201.21 635.17 199.34 636.25 177.28 623.51"/><polygon class="cls-17" points="199.33 636.21 201.19 635.13 221.41 646.81 221.39 648.95 199.33 636.21"/><polygon class="cls-17" points="191.34 594.14 193.21 595.22 193.21 632.71 191.34 631.63 191.34 594.14"/><polygon class="cls-19" points="189.47 593.03 191.34 594.12 191.34 631.6 189.47 630.53 189.47 593.03"/><polygon class="cls-19" points="203.57 601.1 205.44 602.18 205.44 639.67 203.57 638.59 203.57 601.1"/><polygon class="cls-17" points="205.44 602.26 207.31 603.34 207.31 640.83 205.44 639.75 205.44 602.26"/><polygon class="cls-16" points="113.21 458.96 143.6 476.5 143.61 458.95 113.22 441.38 113.21 458.96"/><polygon class="cls-17" points="143.6 476.5 143.61 458.95 158.86 450.16 158.86 467.72 143.6 476.5"/><polygon class="cls-22" points="113.22 441.38 143.61 458.95 158.86 450.16 128.39 432.61 113.22 441.38"/><polygon class="cls-23" points="116.35 457.05 125.84 462.53 125.84 461.49 116.35 456.01 116.35 457.05"/><polygon class="cls-23" points="116.35 454.77 125.84 460.25 125.84 459.22 116.35 453.73 116.35 454.77"/><polygon class="cls-23" points="125.84 454.66 116.35 449.18 116.35 450.21 125.84 455.7 125.84 454.66"/><polygon class="cls-23" points="125.84 452.39 116.35 446.9 116.35 447.94 125.84 453.42 125.84 452.39"/><polygon class="cls-23" points="116.35 452.49 125.84 457.98 125.84 456.94 116.35 451.46 116.35 452.49"/><polygon class="cls-23" points="130.98 465.5 140.47 470.98 140.47 469.95 130.98 464.46 130.98 465.5"/><polygon class="cls-23" points="130.98 463.22 140.47 468.7 140.47 467.67 130.98 462.19 130.98 463.22"/><polygon class="cls-23" points="140.47 463.12 130.98 457.63 130.98 458.67 140.47 464.15 140.47 463.12"/><polygon class="cls-23" points="140.47 460.84 130.98 455.36 130.98 456.39 140.47 461.88 140.47 460.84"/><polygon class="cls-23" points="130.98 460.94 140.47 466.43 140.47 465.39 130.98 459.91 130.98 460.94"/><polygon class="cls-16" points="169.76 491.8 200.15 509.34 200.17 491.79 169.77 474.22 169.76 491.8"/><polygon class="cls-17" points="200.15 509.34 200.17 491.79 215.41 483 215.41 500.56 200.15 509.34"/><polygon class="cls-22" points="169.77 474.22 200.17 491.79 215.41 483 184.94 465.45 169.77 474.22"/><polygon class="cls-23" points="172.9 489.89 182.39 495.37 182.39 494.33 172.9 488.85 172.9 489.89"/><polygon class="cls-23" points="172.9 487.61 182.39 493.09 182.39 492.06 172.9 486.57 172.9 487.61"/><polygon class="cls-23" points="182.39 487.5 172.9 482.02 172.9 483.06 182.39 488.54 182.39 487.5"/><polygon class="cls-23" points="182.39 485.23 172.9 479.74 172.9 480.78 182.39 486.26 182.39 485.23"/><polygon class="cls-23" points="172.9 485.33 182.39 490.82 182.39 489.78 172.9 484.3 172.9 485.33"/><polygon class="cls-23" points="187.53 498.34 197.02 503.82 197.02 502.79 187.53 497.3 187.53 498.34"/><polygon class="cls-23" points="187.53 496.06 197.02 501.55 197.02 500.51 187.53 495.02 187.53 496.06"/><polygon class="cls-23" points="197.02 495.95 187.53 490.47 187.53 491.51 197.02 496.99 197.02 495.95"/><polygon class="cls-23" points="197.02 493.68 187.53 488.19 187.53 489.23 197.02 494.71 197.02 493.68"/><polygon class="cls-23" points="187.53 493.78 197.02 499.27 197.02 498.23 187.53 492.75 187.53 493.78"/><polygon class="cls-16" points="227.56 525.03 257.95 542.57 257.96 525.02 227.57 507.45 227.56 525.03"/><polygon class="cls-17" points="257.95 542.57 257.96 525.02 273.21 516.23 273.21 533.78 257.95 542.57"/><polygon class="cls-22" points="227.57 507.45 257.96 525.02 273.21 516.23 242.74 498.68 227.57 507.45"/><polygon class="cls-23" points="230.7 523.12 240.19 528.6 240.19 527.56 230.7 522.08 230.7 523.12"/><polygon class="cls-23" points="230.7 520.84 240.19 526.32 240.19 525.29 230.7 519.8 230.7 520.84"/><polygon class="cls-23" points="240.19 520.73 230.7 515.25 230.7 516.28 240.19 521.77 240.19 520.73"/><polygon class="cls-23" points="240.19 518.46 230.7 512.97 230.7 514.01 240.19 519.49 240.19 518.46"/><polygon class="cls-23" points="230.7 518.56 240.19 524.05 240.19 523.01 230.7 517.53 230.7 518.56"/><polygon class="cls-23" points="245.33 531.57 254.82 537.05 254.82 536.02 245.33 530.53 245.33 531.57"/><polygon class="cls-23" points="245.33 529.29 254.82 534.77 254.82 533.74 245.33 528.25 245.33 529.29"/><polygon class="cls-23" points="254.82 529.19 245.33 523.7 245.33 524.74 254.82 530.22 254.82 529.19"/><polygon class="cls-23" points="254.82 526.91 245.33 521.42 245.33 522.46 254.82 527.95 254.82 526.91"/><polygon class="cls-23" points="245.33 527.01 254.82 532.5 254.82 531.46 245.33 525.98 245.33 527.01"/></g></g></svg>