<svg xmlns="http://www.w3.org/2000/svg" viewBox="0 0 319.32 661.36"><defs><style>.cls-1{fill:#a4a1c1;}.cls-2{fill:#d1d0e0;}.cls-3{fill:#e8e7ef;}.cls-4{fill:#bbb8d0;}.cls-5{fill:#c6c4d8;}.cls-6{fill:#dddce8;}.cls-7{fill:#7672a2;}.cls-8{fill:#d4eef9;}.cls-9{fill:#29abe2;}.cls-10{fill:#7fcdee;}.cls-11{fill:#1f80aa;}.cls-12{fill:#a9ddf3;}.cls-13{fill:#54bce8;}.cls-14{fill:#155671;}.cls-15{fill:#eaf7fc;}.cls-16{fill:#f4fbfe;}.cls-17{fill:#9895b9;}</style></defs><title>Asset 3</title><g id="Layer_2" data-name="Layer 2"><g id="Vrstva_1" data-name="Vrstva 1"><polygon class="cls-1" points="0.03 94.87 0 379.4 82.14 426.82 82.2 142.31 0.03 94.87"/><polygon class="cls-2" points="82.2 142.31 82.14 426.82 246.43 331.98 246.53 47.42 82.2 142.31"/><polygon class="cls-3" points="0.03 94.87 82.2 142.31 246.53 47.42 164.36 0 0.03 94.87"/><polygon class="cls-3" points="94.22 204.78 112.81 193.97 112.81 155.85 94.22 166.67 94.22 204.78"/><polygon class="cls-1" points="110.53 157.18 110.53 191.69 94.22 201.18 94.22 204.78 112.81 193.97 112.81 155.85 110.53 157.18"/><polygon class="cls-3" points="215.86 134.24 234.45 123.43 234.45 85.32 215.86 96.13 215.86 134.24"/><polygon class="cls-1" points="232.18 86.64 232.18 121.15 215.86 130.64 215.86 134.24 234.45 123.43 234.45 85.32 232.18 86.64"/><polygon class="cls-3" points="135.67 180.71 154.26 169.89 154.26 131.78 135.67 142.6 135.67 180.71"/><polygon class="cls-3" points="154.26 169.89 172.85 159.08 172.85 120.97 154.26 131.78 154.26 169.89"/><polygon class="cls-3" points="172.85 159.19 191.44 148.37 191.44 110.26 172.85 121.08 172.85 159.19"/><polygon class="cls-1" points="189.17 111.59 189.17 146.1 135.67 177.11 135.67 180.71 191.44 148.37 191.44 110.26 189.17 111.59"/><polygon class="cls-4" points="171.72 121.69 173.99 120.36 173.99 154.9 171.72 156.22 171.72 121.69"/><polygon class="cls-4" points="153.13 132.41 155.4 131.08 155.4 165.67 153.13 166.99 153.13 132.41"/><polygon class="cls-5" points="192.85 151.08 195.92 152.85 195.92 137.43 192.85 135.66 192.85 151.08"/><polygon class="cls-6" points="195.92 152.95 135.82 187.63 135.82 172.22 195.92 137.53 195.92 152.95"/><polygon class="cls-5" points="132.75 185.86 135.82 187.63 135.82 172.22 132.75 170.45 132.75 185.86"/><polygon class="cls-3" points="94.22 266.82 112.81 256 112.81 217.89 94.22 228.71 94.22 266.82"/><polygon class="cls-1" points="110.53 219.22 110.53 253.73 94.22 263.22 94.22 266.82 112.81 256 112.81 217.89 110.53 219.22"/><polygon class="cls-3" points="215.86 196.28 234.45 185.47 234.45 147.36 215.86 158.17 215.86 196.28"/><polygon class="cls-1" points="232.18 148.68 232.18 183.19 215.86 192.68 215.86 196.28 234.45 185.47 234.45 147.36 232.18 148.68"/><polygon class="cls-3" points="135.67 242.75 154.26 231.93 154.26 193.82 135.67 204.64 135.67 242.75"/><polygon class="cls-3" points="154.26 231.93 172.85 221.12 172.85 183.01 154.26 193.82 154.26 231.93"/><polygon class="cls-3" points="172.85 221.23 191.44 210.41 191.44 172.3 172.85 183.12 172.85 221.23"/><polygon class="cls-1" points="189.17 173.63 189.17 208.14 135.67 239.15 135.67 242.75 191.44 210.41 191.44 172.3 189.17 173.63"/><polygon class="cls-4" points="171.72 183.73 173.99 182.4 173.99 216.93 171.72 218.26 171.72 183.73"/><polygon class="cls-4" points="153.13 194.44 155.4 193.12 155.4 227.71 153.13 229.03 153.13 194.44"/><polygon class="cls-5" points="192.85 213.12 195.92 214.89 195.92 199.47 192.85 197.7 192.85 213.12"/><polygon class="cls-6" points="195.92 214.99 135.82 249.67 135.82 234.26 195.92 199.57 195.92 214.99"/><polygon class="cls-5" points="132.75 247.9 135.82 249.67 135.82 234.26 132.75 232.49 132.75 247.9"/><polygon class="cls-3" points="94.22 328.86 112.81 318.04 112.81 279.93 94.22 290.75 94.22 328.86"/><polygon class="cls-1" points="110.53 281.26 110.53 315.77 94.22 325.26 94.22 328.86 112.81 318.04 112.81 279.93 110.53 281.26"/><polygon class="cls-3" points="215.86 258.32 234.45 247.51 234.45 209.4 215.86 220.21 215.86 258.32"/><polygon class="cls-1" points="232.18 210.72 232.18 245.23 215.86 254.72 215.86 258.32 234.45 247.51 234.45 209.4 232.18 210.72"/><polygon class="cls-3" points="135.67 304.79 154.26 293.97 154.26 255.86 135.67 266.68 135.67 304.79"/><polygon class="cls-3" points="154.26 293.97 172.85 283.16 172.85 245.05 154.26 255.86 154.26 293.97"/><polygon class="cls-3" points="172.85 283.27 191.44 272.45 191.44 234.34 172.85 245.16 172.85 283.27"/><polygon class="cls-1" points="189.17 235.67 189.17 270.18 135.67 301.19 135.67 304.79 191.44 272.45 191.44 234.34 189.17 235.67"/><polygon class="cls-4" points="171.72 245.76 173.99 244.44 173.99 278.97 171.72 280.3 171.72 245.76"/><polygon class="cls-4" points="153.13 256.48 155.4 255.16 155.4 289.75 153.13 291.07 153.13 256.48"/><polygon class="cls-5" points="192.85 275.15 195.92 276.93 195.92 261.51 192.85 259.74 192.85 275.15"/><polygon class="cls-6" points="195.92 277.03 135.82 311.71 135.82 296.29 195.92 261.61 195.92 277.03"/><polygon class="cls-5" points="132.75 309.94 135.82 311.71 135.82 296.29 132.75 294.52 132.75 309.94"/><polygon class="cls-3" points="94.22 390.9 112.81 380.08 112.81 341.97 94.22 352.79 94.22 390.9"/><polygon class="cls-1" points="110.53 343.3 110.53 377.81 94.22 387.3 94.22 390.9 112.81 380.08 112.81 341.97 110.53 343.3"/><polygon class="cls-3" points="215.86 320.36 234.45 309.55 234.45 271.44 215.86 282.25 215.86 320.36"/><polygon class="cls-1" points="232.18 272.76 232.18 307.27 215.86 316.76 215.86 320.36 234.45 309.55 234.45 271.44 232.18 272.76"/><polygon class="cls-3" points="135.67 366.83 154.26 356.01 154.26 317.9 135.67 328.72 135.67 366.83"/><polygon class="cls-3" points="154.26 356.01 172.85 345.2 172.85 307.09 154.26 317.9 154.26 356.01"/><polygon class="cls-3" points="172.85 345.31 191.44 334.49 191.44 296.38 172.85 307.19 172.85 345.31"/><polygon class="cls-1" points="189.17 297.71 189.17 332.21 135.67 363.23 135.67 366.83 191.44 334.49 191.44 296.38 189.17 297.71"/><polygon class="cls-4" points="171.72 307.8 173.99 306.48 173.99 341.01 171.72 342.34 171.72 307.8"/><polygon class="cls-4" points="153.13 318.52 155.4 317.2 155.4 351.79 153.13 353.11 153.13 318.52"/><polygon class="cls-5" points="192.85 337.19 195.92 338.97 195.92 323.55 192.85 321.78 192.85 337.19"/><polygon class="cls-6" points="195.92 339.07 135.82 373.75 135.82 358.33 195.92 323.65 195.92 339.07"/><polygon class="cls-5" points="132.75 371.98 135.82 373.75 135.82 358.33 132.75 356.56 132.75 371.98"/><polygon class="cls-3" points="50.39 408.07 31.8 397.26 31.8 350.84 50.39 361.65 50.39 408.07"/><polygon class="cls-7" points="34.08 352.16 34.08 394.98 50.39 404.47 50.39 408.07 31.8 397.26 31.8 350.84 34.08 352.16"/><polygon class="cls-3" points="50.39 319.82 31.8 309.01 31.8 288.96 50.39 299.78 50.39 319.82"/><polygon class="cls-7" points="34.08 290.29 34.08 306.74 50.39 316.23 50.39 319.82 31.8 309.01 31.8 288.96 34.08 290.29"/><polygon class="cls-3" points="50.39 257.79 31.8 246.97 31.8 226.93 50.39 237.74 50.39 257.79"/><polygon class="cls-7" points="34.08 228.25 34.08 244.7 50.39 254.19 50.39 257.79 31.8 246.97 31.8 226.93 34.08 228.25"/><polygon class="cls-3" points="50.39 195.75 31.8 184.94 31.8 164.89 50.39 175.7 50.39 195.75"/><polygon class="cls-7" points="34.08 166.21 34.08 182.66 50.39 192.15 50.39 195.75 31.8 184.94 31.8 164.89 34.08 166.21"/><polygon class="cls-8" points="319.29 186.65 319.32 465.09 238.94 511.5 238.94 233.04 319.29 186.65"/><polygon class="cls-9" points="303.25 214.27 303.25 232.84 287.14 242.1 287.17 223.55 303.25 214.27"/><polygon class="cls-10" points="299.78 230.95 299.78 216.28 303.25 214.27 303.25 232.84 287.14 242.1 287.15 238.21 299.78 230.95"/><polygon class="cls-11" points="287.15 238.21 287.17 223.55 299.78 216.28 299.78 230.95 287.15 238.21"/><polygon class="cls-10" points="306.02 234.39 289.92 243.65 287.14 242.1 303.25 232.84 306.02 234.39"/><polygon class="cls-9" points="303.25 251.77 303.25 270.33 287.14 279.59 287.17 261.05 303.25 251.77"/><polygon class="cls-10" points="299.78 268.44 299.78 253.77 303.25 251.77 303.25 270.33 287.14 279.59 287.15 275.71 299.78 268.44"/><polygon class="cls-11" points="287.15 275.71 287.17 261.05 299.78 253.77 299.78 268.44 287.15 275.71"/><polygon class="cls-10" points="306.02 271.88 289.92 281.15 287.14 279.59 303.25 270.33 306.02 271.88"/><polygon class="cls-9" points="303.25 289.26 303.25 307.83 287.14 317.09 287.17 298.55 303.25 289.26"/><polygon class="cls-10" points="299.78 305.94 299.78 291.27 303.25 289.26 303.25 307.83 287.14 317.09 287.15 313.2 299.78 305.94"/><polygon class="cls-11" points="287.15 313.2 287.17 298.55 299.78 291.27 299.78 305.94 287.15 313.2"/><polygon class="cls-10" points="306.02 309.38 289.92 318.64 287.14 317.09 303.25 307.83 306.02 309.38"/><polygon class="cls-9" points="303.25 326.76 303.25 345.32 287.14 354.59 287.17 336.04 303.25 326.76"/><polygon class="cls-10" points="299.78 343.44 299.78 328.76 303.25 326.76 303.25 345.32 287.14 354.59 287.15 350.7 299.78 343.44"/><polygon class="cls-11" points="287.15 350.7 287.17 336.04 299.78 328.76 299.78 343.44 287.15 350.7"/><polygon class="cls-10" points="306.02 346.88 289.92 356.14 287.14 354.59 303.25 345.32 306.02 346.88"/><polygon class="cls-9" points="303.25 364.26 303.25 382.82 287.14 392.08 287.17 373.54 303.25 364.26"/><polygon class="cls-10" points="299.78 380.93 299.78 366.26 303.25 364.26 303.25 382.82 287.14 392.08 287.15 388.2 299.78 380.93"/><polygon class="cls-11" points="287.15 388.2 287.17 373.54 299.78 366.26 299.78 380.93 287.15 388.2"/><polygon class="cls-10" points="306.02 384.37 289.92 393.64 287.14 392.08 303.25 382.82 306.02 384.37"/><polygon class="cls-9" points="303.25 401.75 303.25 420.31 287.14 429.58 287.17 411.03 303.25 401.75"/><polygon class="cls-10" points="299.78 418.43 299.78 403.76 303.25 401.75 303.25 420.31 287.14 429.58 287.15 425.69 299.78 418.43"/><polygon class="cls-11" points="287.15 425.69 287.17 411.03 299.78 403.76 299.78 418.43 287.15 425.69"/><polygon class="cls-10" points="306.02 421.87 289.92 431.13 287.14 429.58 303.25 420.31 306.02 421.87"/><polygon class="cls-9" points="303.25 439.25 303.25 457.81 287.14 467.08 287.17 448.53 303.25 439.25"/><polygon class="cls-10" points="299.78 455.92 299.78 441.25 303.25 439.25 303.25 457.81 287.14 467.08 287.15 463.19 299.78 455.92"/><polygon class="cls-11" points="287.15 463.19 287.17 448.53 299.78 441.25 299.78 455.92 287.15 463.19"/><polygon class="cls-10" points="306.02 459.37 289.92 468.63 287.14 467.08 303.25 457.81 306.02 459.37"/><polygon class="cls-9" points="271.09 232.84 271.09 251.4 254.98 260.66 255.01 242.12 271.09 232.84"/><polygon class="cls-10" points="267.62 249.51 267.62 234.84 271.09 232.84 271.09 251.4 254.98 260.66 254.99 256.77 267.62 249.51"/><polygon class="cls-11" points="254.99 256.77 255.01 242.12 267.62 234.84 267.62 249.51 254.99 256.77"/><polygon class="cls-10" points="273.86 252.95 257.76 262.22 254.98 260.66 271.09 251.4 273.86 252.95"/><polygon class="cls-9" points="271.09 270.33 271.09 288.89 254.98 298.16 255.01 279.61 271.09 270.33"/><polygon class="cls-10" points="267.62 287.01 267.62 272.33 271.09 270.33 271.09 288.89 254.98 298.16 254.99 294.27 267.62 287.01"/><polygon class="cls-11" points="254.99 294.27 255.01 279.61 267.62 272.33 267.62 287.01 254.99 294.27"/><polygon class="cls-10" points="273.86 290.45 257.76 299.71 254.98 298.16 271.09 288.89 273.86 290.45"/><polygon class="cls-9" points="271.09 307.83 271.09 326.39 254.98 335.65 255.01 317.11 271.09 307.83"/><polygon class="cls-10" points="267.62 324.5 267.62 309.83 271.09 307.83 271.09 326.39 254.98 335.65 254.99 331.77 267.62 324.5"/><polygon class="cls-11" points="254.99 331.77 255.01 317.11 267.62 309.83 267.62 324.5 254.99 331.77"/><polygon class="cls-10" points="273.86 327.94 257.76 337.21 254.98 335.65 271.09 326.39 273.86 327.94"/><polygon class="cls-9" points="271.09 345.32 271.09 363.88 254.98 373.15 255.01 354.6 271.09 345.32"/><polygon class="cls-10" points="267.62 362 267.62 347.33 271.09 345.32 271.09 363.88 254.98 373.15 254.99 369.26 267.62 362"/><polygon class="cls-11" points="254.99 369.26 255.01 354.6 267.62 347.33 267.62 362 254.99 369.26"/><polygon class="cls-10" points="273.86 365.44 257.76 374.7 254.98 373.15 271.09 363.88 273.86 365.44"/><polygon class="cls-9" points="271.09 382.82 271.09 401.38 254.98 410.65 255.01 392.1 271.09 382.82"/><polygon class="cls-10" points="267.62 399.5 267.62 384.82 271.09 382.82 271.09 401.38 254.98 410.65 254.99 406.76 267.62 399.5"/><polygon class="cls-11" points="254.99 406.76 255.01 392.1 267.62 384.82 267.62 399.5 254.99 406.76"/><polygon class="cls-10" points="273.86 402.94 257.76 412.2 254.98 410.65 271.09 401.38 273.86 402.94"/><polygon class="cls-9" points="271.09 420.31 271.09 438.88 254.98 448.14 255.01 429.6 271.09 420.31"/><polygon class="cls-10" points="267.62 436.99 267.62 422.32 271.09 420.31 271.09 438.88 254.98 448.14 254.99 444.26 267.62 436.99"/><polygon class="cls-11" points="254.99 444.26 255.01 429.6 267.62 422.32 267.62 436.99 254.99 444.26"/><polygon class="cls-10" points="273.86 440.43 257.76 449.69 254.98 448.14 271.09 438.88 273.86 440.43"/><polygon class="cls-9" points="271.09 457.81 271.09 476.37 254.98 485.64 255.01 467.09 271.09 457.81"/><polygon class="cls-10" points="267.62 474.49 267.62 459.81 271.09 457.81 271.09 476.37 254.98 485.64 254.99 481.75 267.62 474.49"/><polygon class="cls-11" points="254.99 481.75 255.01 467.09 267.62 459.81 267.62 474.49 254.99 481.75"/><polygon class="cls-10" points="273.86 477.93 257.76 487.19 254.98 485.64 271.09 476.37 273.86 477.93"/><polygon class="cls-12" points="158.55 186.65 158.52 465.09 238.9 511.5 238.9 233.04 158.55 186.65"/><polygon class="cls-9" points="174.59 214.27 174.59 232.84 190.7 242.1 190.67 223.55 174.59 214.27"/><polygon class="cls-13" points="178.06 230.95 178.06 216.28 174.59 214.27 174.59 232.84 190.7 242.1 190.69 238.21 178.06 230.95"/><polygon class="cls-14" points="190.69 238.21 190.67 223.55 178.06 216.28 178.06 230.95 190.69 238.21"/><polygon class="cls-13" points="171.82 234.39 187.92 243.65 190.7 242.1 174.59 232.84 171.82 234.39"/><polygon class="cls-9" points="174.59 251.77 174.59 270.33 190.7 279.59 190.67 261.05 174.59 251.77"/><polygon class="cls-13" points="178.06 268.44 178.06 253.77 174.59 251.77 174.59 270.33 190.7 279.59 190.69 275.71 178.06 268.44"/><polygon class="cls-14" points="190.69 275.71 190.67 261.05 178.06 253.77 178.06 268.44 190.69 275.71"/><polygon class="cls-13" points="171.82 271.88 187.92 281.15 190.7 279.59 174.59 270.33 171.82 271.88"/><polygon class="cls-9" points="174.59 289.26 174.59 307.83 190.7 317.09 190.67 298.55 174.59 289.26"/><polygon class="cls-13" points="178.06 305.94 178.06 291.27 174.59 289.26 174.59 307.83 190.7 317.09 190.69 313.2 178.06 305.94"/><polygon class="cls-14" points="190.69 313.2 190.67 298.55 178.06 291.27 178.06 305.94 190.69 313.2"/><polygon class="cls-13" points="171.82 309.38 187.92 318.64 190.7 317.09 174.59 307.83 171.82 309.38"/><polygon class="cls-9" points="174.59 326.76 174.59 345.32 190.7 354.59 190.67 336.04 174.59 326.76"/><polygon class="cls-13" points="178.06 343.44 178.06 328.76 174.59 326.76 174.59 345.32 190.7 354.59 190.69 350.7 178.06 343.44"/><polygon class="cls-14" points="190.69 350.7 190.67 336.04 178.06 328.76 178.06 343.44 190.69 350.7"/><polygon class="cls-13" points="171.82 346.88 187.92 356.14 190.7 354.59 174.59 345.32 171.82 346.88"/><polygon class="cls-9" points="174.59 364.26 174.59 382.82 190.7 392.08 190.67 373.54 174.59 364.26"/><polygon class="cls-13" points="178.06 380.93 178.06 366.26 174.59 364.26 174.59 382.82 190.7 392.08 190.69 388.2 178.06 380.93"/><polygon class="cls-14" points="190.69 388.2 190.67 373.54 178.06 366.26 178.06 380.93 190.69 388.2"/><polygon class="cls-13" points="171.82 384.37 187.92 393.64 190.7 392.08 174.59 382.82 171.82 384.37"/><polygon class="cls-9" points="174.59 401.75 174.59 420.31 190.7 429.58 190.67 411.03 174.59 401.75"/><polygon class="cls-13" points="178.06 418.43 178.06 403.76 174.59 401.75 174.59 420.31 190.7 429.58 190.69 425.69 178.06 418.43"/><polygon class="cls-14" points="190.69 425.69 190.67 411.03 178.06 403.76 178.06 418.43 190.69 425.69"/><polygon class="cls-13" points="171.82 421.87 187.92 431.13 190.7 429.58 174.59 420.31 171.82 421.87"/><polygon class="cls-9" points="174.59 439.25 174.59 457.81 190.7 467.08 190.67 448.53 174.59 439.25"/><polygon class="cls-13" points="178.06 455.92 178.06 441.25 174.59 439.25 174.59 457.81 190.7 467.08 190.69 463.19 178.06 455.92"/><polygon class="cls-14" points="190.69 463.19 190.67 448.53 178.06 441.25 178.06 455.92 190.69 463.19"/><polygon class="cls-13" points="171.82 459.37 187.92 468.63 190.7 467.08 174.59 457.81 171.82 459.37"/><polygon class="cls-9" points="206.75 232.84 206.75 251.4 222.86 260.66 222.83 242.12 206.75 232.84"/><polygon class="cls-13" points="210.22 249.51 210.22 234.84 206.75 232.84 206.75 251.4 222.86 260.66 222.85 256.77 210.22 249.51"/><polygon class="cls-14" points="222.85 256.77 222.83 242.12 210.22 234.84 210.22 249.51 222.85 256.77"/><polygon class="cls-13" points="203.98 252.95 220.08 262.22 222.86 260.66 206.75 251.4 203.98 252.95"/><polygon class="cls-9" points="206.75 270.33 206.75 288.89 222.86 298.16 222.83 279.61 206.75 270.33"/><polygon class="cls-13" points="210.22 287.01 210.22 272.33 206.75 270.33 206.75 288.89 222.86 298.16 222.85 294.27 210.22 287.01"/><polygon class="cls-14" points="222.85 294.27 222.83 279.61 210.22 272.33 210.22 287.01 222.85 294.27"/><polygon class="cls-13" points="203.98 290.45 220.08 299.71 222.86 298.16 206.75 288.89 203.98 290.45"/><polygon class="cls-9" points="206.75 307.83 206.75 326.39 222.86 335.65 222.83 317.11 206.75 307.83"/><polygon class="cls-13" points="210.22 324.5 210.22 309.83 206.75 307.83 206.75 326.39 222.86 335.65 222.85 331.77 210.22 324.5"/><polygon class="cls-14" points="222.85 331.77 222.83 317.11 210.22 309.83 210.22 324.5 222.85 331.77"/><polygon class="cls-13" points="203.98 327.94 220.08 337.21 222.86 335.65 206.75 326.39 203.98 327.94"/><polygon class="cls-9" points="206.75 345.32 206.75 363.88 222.86 373.15 222.83 354.6 206.75 345.32"/><polygon class="cls-13" points="210.22 362 210.22 347.33 206.75 345.32 206.75 363.88 222.86 373.15 222.85 369.26 210.22 362"/><polygon class="cls-14" points="222.85 369.26 222.83 354.6 210.22 347.33 210.22 362 222.85 369.26"/><polygon class="cls-13" points="203.98 365.44 220.08 374.7 222.86 373.15 206.75 363.88 203.98 365.44"/><polygon class="cls-9" points="206.75 382.82 206.75 401.38 222.86 410.65 222.83 392.1 206.75 382.82"/><polygon class="cls-13" points="210.22 399.5 210.22 384.82 206.75 382.82 206.75 401.38 222.86 410.65 222.85 406.76 210.22 399.5"/><polygon class="cls-14" points="222.85 406.76 222.83 392.1 210.22 384.82 210.22 399.5 222.85 406.76"/><polygon class="cls-13" points="203.98 402.94 220.08 412.2 222.86 410.65 206.75 401.38 203.98 402.94"/><polygon class="cls-9" points="206.75 420.31 206.75 438.88 222.86 448.14 222.83 429.6 206.75 420.31"/><polygon class="cls-13" points="210.22 436.99 210.22 422.32 206.75 420.31 206.75 438.88 222.86 448.14 222.85 444.26 210.22 436.99"/><polygon class="cls-14" points="222.85 444.26 222.83 429.6 210.22 422.32 210.22 436.99 222.85 444.26"/><polygon class="cls-13" points="203.98 440.43 220.08 449.69 222.86 448.14 206.75 438.88 203.98 440.43"/><polygon class="cls-9" points="206.75 457.81 206.75 476.37 222.86 485.64 222.83 467.09 206.75 457.81"/><polygon class="cls-13" points="210.22 474.49 210.22 459.81 206.75 457.81 206.75 476.37 222.86 485.64 222.85 481.75 210.22 474.49"/><polygon class="cls-14" points="222.85 481.75 222.83 467.09 210.22 459.81 210.22 474.49 222.85 481.75"/><polygon class="cls-13" points="203.98 477.93 220.08 487.19 222.86 485.64 206.75 476.37 203.98 477.93"/><polygon class="cls-15" points="319.29 186.65 238.9 233.04 158.55 186.65 238.9 140.92 319.29 186.65"/><polygon class="cls-8" points="271.07 196.6 238.94 215.15 238.92 196.59 271.06 178.02 271.07 196.6"/><polygon class="cls-12" points="238.94 215.15 238.92 196.59 222.81 187.3 222.81 205.86 238.94 215.15"/><polygon class="cls-16" points="271.06 178.02 238.92 196.59 222.81 187.3 255.02 168.74 271.06 178.02"/><polygon class="cls-2" points="246.49 329.4 246.53 613.93 164.38 661.36 164.33 376.84 246.49 329.4"/><polygon class="cls-1" points="164.33 376.84 164.38 661.36 0.1 566.51 0 281.96 164.33 376.84"/><polygon class="cls-3" points="246.49 329.4 164.33 376.84 0 281.96 82.16 234.53 246.49 329.4"/><polygon class="cls-4" points="152.31 439.31 133.72 428.5 133.72 390.39 152.31 401.2 152.31 439.31"/><polygon class="cls-7" points="136 391.71 136 426.22 152.31 435.71 152.31 439.31 133.72 428.5 133.72 390.39 136 391.71"/><polygon class="cls-4" points="30.66 368.77 12.07 357.96 12.07 319.85 30.66 330.66 30.66 368.77"/><polygon class="cls-7" points="14.35 321.18 14.35 355.69 30.66 365.17 30.66 368.77 12.07 357.96 12.07 319.85 14.35 321.18"/><polygon class="cls-4" points="110.85 415.24 92.27 404.43 92.27 366.32 110.85 377.13 110.85 415.24"/><polygon class="cls-4" points="92.27 404.43 73.67 393.62 73.67 355.5 92.27 366.32 92.27 404.43"/><polygon class="cls-4" points="73.67 393.72 55.08 382.91 55.08 344.8 73.67 355.61 73.67 393.72"/><polygon class="cls-7" points="57.36 346.12 57.36 380.63 110.85 411.64 110.85 415.24 55.08 382.91 55.08 344.8 57.36 346.12"/><polygon class="cls-17" points="74.81 356.22 72.53 354.9 72.53 389.43 74.81 390.76 74.81 356.22"/><polygon class="cls-17" points="93.4 366.94 91.13 365.61 91.13 400.2 93.4 401.52 93.4 366.94"/><polygon class="cls-4" points="53.68 385.61 50.61 387.38 50.61 371.96 53.68 370.19 53.68 385.61"/><polygon class="cls-5" points="50.61 387.48 110.71 422.17 110.71 406.75 50.61 372.07 50.61 387.48"/><polygon class="cls-2" points="113.78 420.4 110.71 422.17 110.71 406.75 113.78 404.98 113.78 420.4"/><polygon class="cls-4" points="152.31 501.35 133.72 490.54 133.72 452.43 152.31 463.24 152.31 501.35"/><polygon class="cls-7" points="136 453.75 136 488.26 152.31 497.75 152.31 501.35 133.72 490.54 133.72 452.43 136 453.75"/><polygon class="cls-4" points="30.66 430.81 12.07 420 12.07 381.89 30.66 392.7 30.66 430.81"/><polygon class="cls-7" points="14.35 383.21 14.35 417.73 30.66 427.21 30.66 430.81 12.07 420 12.07 381.89 14.35 383.21"/><polygon class="cls-4" points="110.85 477.28 92.27 466.47 92.27 428.36 110.85 439.17 110.85 477.28"/><polygon class="cls-4" points="92.27 466.47 73.67 455.65 73.67 417.54 92.27 428.36 92.27 466.47"/><polygon class="cls-4" points="73.67 455.76 55.08 444.95 55.08 406.83 73.67 417.65 73.67 455.76"/><polygon class="cls-7" points="57.36 408.16 57.36 442.67 110.85 473.68 110.85 477.28 55.08 444.95 55.08 406.83 57.36 408.16"/><polygon class="cls-17" points="74.81 418.26 72.53 416.94 72.53 451.47 74.81 452.8 74.81 418.26"/><polygon class="cls-17" points="93.4 428.98 91.13 427.65 91.13 462.24 93.4 463.56 93.4 428.98"/><polygon class="cls-4" points="53.68 447.65 50.61 449.42 50.61 434 53.68 432.23 53.68 447.65"/><polygon class="cls-5" points="50.61 449.52 110.71 484.21 110.71 468.79 50.61 434.11 50.61 449.52"/><polygon class="cls-2" points="113.78 482.44 110.71 484.21 110.71 468.79 113.78 467.02 113.78 482.44"/><polygon class="cls-4" points="152.31 563.39 133.72 552.58 133.72 514.47 152.31 525.28 152.31 563.39"/><polygon class="cls-7" points="136 515.79 136 550.3 152.31 559.79 152.31 563.39 133.72 552.58 133.72 514.47 136 515.79"/><polygon class="cls-4" points="30.66 492.85 12.07 482.04 12.07 443.93 30.66 454.74 30.66 492.85"/><polygon class="cls-7" points="14.35 445.25 14.35 479.76 30.66 489.25 30.66 492.85 12.07 482.04 12.07 443.93 14.35 445.25"/><polygon class="cls-4" points="110.85 539.32 92.27 528.51 92.27 490.4 110.85 501.21 110.85 539.32"/><polygon class="cls-4" points="92.27 528.51 73.67 517.69 73.67 479.58 92.27 490.4 92.27 528.51"/><polygon class="cls-4" points="73.67 517.8 55.08 506.99 55.08 468.87 73.67 479.69 73.67 517.8"/><polygon class="cls-7" points="57.36 470.2 57.36 504.71 110.85 535.72 110.85 539.32 55.08 506.99 55.08 468.87 57.36 470.2"/><polygon class="cls-17" points="74.81 480.3 72.53 478.98 72.53 513.51 74.81 514.84 74.81 480.3"/><polygon class="cls-17" points="93.4 491.02 91.13 489.69 91.13 524.28 93.4 525.6 93.4 491.02"/><polygon class="cls-4" points="53.68 509.69 50.61 511.46 50.61 496.04 53.68 494.27 53.68 509.69"/><polygon class="cls-5" points="50.61 511.56 110.71 546.25 110.71 530.83 50.61 496.14 50.61 511.56"/><polygon class="cls-2" points="113.78 544.47 110.71 546.25 110.71 530.83 113.78 529.06 113.78 544.47"/><polygon class="cls-4" points="152.31 625.43 133.72 614.62 133.72 576.5 152.31 587.32 152.31 625.43"/><polygon class="cls-7" points="136 577.83 136 612.34 152.31 621.83 152.31 625.43 133.72 614.62 133.72 576.5 136 577.83"/><polygon class="cls-4" points="30.66 554.89 12.07 544.08 12.07 505.97 30.66 516.78 30.66 554.89"/><polygon class="cls-7" points="14.35 507.29 14.35 541.8 30.66 551.29 30.66 554.89 12.07 544.08 12.07 505.97 14.35 507.29"/><polygon class="cls-4" points="110.85 601.36 92.27 590.55 92.27 552.44 110.85 563.25 110.85 601.36"/><polygon class="cls-4" points="92.27 590.55 73.67 579.73 73.67 541.62 92.27 552.44 92.27 590.55"/><polygon class="cls-4" points="73.67 579.84 55.08 569.02 55.08 530.91 73.67 541.73 73.67 579.84"/><polygon class="cls-7" points="57.36 532.24 57.36 566.75 110.85 597.76 110.85 601.36 55.08 569.02 55.08 530.91 57.36 532.24"/><polygon class="cls-17" points="74.81 542.34 72.53 541.01 72.53 575.55 74.81 576.88 74.81 542.34"/><polygon class="cls-17" points="93.4 553.06 91.13 551.73 91.13 586.32 93.4 587.64 93.4 553.06"/><polygon class="cls-4" points="53.68 571.73 50.61 573.5 50.61 558.08 53.68 556.31 53.68 571.73"/><polygon class="cls-5" points="50.61 573.6 110.71 608.28 110.71 592.87 50.61 558.18 50.61 573.6"/><polygon class="cls-2" points="113.78 606.51 110.71 608.28 110.71 592.87 113.78 591.1 113.78 606.51"/><polygon class="cls-3" points="196.13 642.61 214.72 631.79 214.72 585.37 196.13 596.18 196.13 642.61"/><polygon class="cls-1" points="212.45 586.7 212.45 629.52 196.13 639 196.13 642.61 214.72 631.79 214.72 585.37 212.45 586.7"/><polygon class="cls-3" points="196.13 554.36 214.72 543.54 214.72 523.5 196.13 534.31 196.13 554.36"/><polygon class="cls-1" points="212.45 524.82 212.45 541.27 196.13 550.76 196.13 554.36 214.72 543.54 214.72 523.5 212.45 524.82"/><polygon class="cls-3" points="196.13 492.32 214.72 481.51 214.72 461.46 196.13 472.27 196.13 492.32"/><polygon class="cls-1" points="212.45 462.78 212.45 479.23 196.13 488.72 196.13 492.32 214.72 481.51 214.72 461.46 212.45 462.78"/><polygon class="cls-3" points="196.13 430.28 214.72 419.47 214.72 399.42 196.13 410.23 196.13 430.28"/><polygon class="cls-1" points="212.45 400.74 212.45 417.19 196.13 426.68 196.13 430.28 214.72 419.47 214.72 399.42 212.45 400.74"/></g></g></svg>