<svg xmlns="http://www.w3.org/2000/svg" viewBox="0 0 425.4 109.14"><defs><style>.cls-1,.cls-2{fill:#231f20;}.cls-2{stroke:#000;stroke-miterlimit:10;stroke-width:0.4px;}</style></defs><title>Asset 1</title><g id="Layer_2" data-name="Layer 2"><g id="Layer_1-2" data-name="Layer 1"><path class="cls-1" d="M105.7,26.54h10l5.6,40.82H111l-.8-7.32H97.11l-3.89,7.32H83.16ZM101,52.15h8.53l-1.2-14.29h-.11Z"/><path class="cls-1" d="M138.62,26.54h17.86a17.23,17.23,0,0,1,4.94.69,9,9,0,0,1,3.88,2.26,8.47,8.47,0,0,1,2.18,4.09,14.1,14.1,0,0,1-.14,6.12,22.55,22.55,0,0,1-2.29,6.46,14.48,14.48,0,0,1-3.65,4.37A14,14,0,0,1,156.6,53a20.66,20.66,0,0,1-5.77.77h-8.06l-2.82,13.61h-9.8Zm5.86,19h6.58a7.09,7.09,0,0,0,4-1.14,5.93,5.93,0,0,0,2.29-3.94q.6-2.92-.64-4.15a4.79,4.79,0,0,0-3.51-1.23h-6.58Z"/><path class="cls-1" d="M180.76,26.54h30L209,35.06H188.79l-1.48,7.15h18.44L204,50.43H185.6L184,58.21h20.7l-1.9,9.15h-30.5Z"/><path class="cls-1" d="M222.9,26.54h19.17a17.41,17.41,0,0,1,4.72.63,9.34,9.34,0,0,1,3.79,2,7.88,7.88,0,0,1,2.24,3.57,10.49,10.49,0,0,1,0,5.26,16,16,0,0,1-2.72,6.15,11.47,11.47,0,0,1-5.3,4.09l0,.11A4.07,4.07,0,0,1,247,49.81a6.55,6.55,0,0,1,1.13,2.4,11.61,11.61,0,0,1,.34,2.94,24.06,24.06,0,0,1-.2,3q-.08.63-.3,1.94t-.36,2.75a19.23,19.23,0,0,0-.08,2.69,3.92,3.92,0,0,0,.41,1.83h-9.69a4.13,4.13,0,0,1-.23-1.43A15.21,15.21,0,0,1,238.1,64q.1-1,.23-1.86c.08-.57.14-1,.17-1.31q.22-1.55.31-3a8.16,8.16,0,0,0-.23-2.69,3.64,3.64,0,0,0-1.21-1.92,4.07,4.07,0,0,0-2.62-.72h-7.43l-3.08,14.86h-9.8ZM229,44.26h8.22A5.32,5.32,0,0,0,240.87,43a6.23,6.23,0,0,0,1.9-3.57q.47-2.29-.75-3.34a4.87,4.87,0,0,0-3.28-1.06h-7.8Z"/><path class="cls-1" d="M294,35.69H282.74l-6.57,31.67h-9.8l6.57-31.67H261.73l1.9-9.15h32.24Z"/><path class="cls-1" d="M333.77,50.49q-1.84,8.86-6.68,13.29t-13.38,4.43q-8.53,0-11.54-4.43T301,50.49l5-24h9.8l-5.1,24.58q-.82,3.94.24,5.94t4.7,2a7.24,7.24,0,0,0,5.53-2,12.09,12.09,0,0,0,2.71-5.94l5.1-24.58h9.8Z"/><path class="cls-1" d="M351.33,26.54h19.17a17.39,17.39,0,0,1,4.71.63,9.34,9.34,0,0,1,3.79,2,7.9,7.9,0,0,1,2.24,3.57,10.51,10.51,0,0,1,0,5.26,16,16,0,0,1-2.72,6.15,11.47,11.47,0,0,1-5.3,4.09l0,.11a4.07,4.07,0,0,1,2.18,1.43,6.55,6.55,0,0,1,1.14,2.4,11.66,11.66,0,0,1,.34,2.94,24.07,24.07,0,0,1-.2,3q-.08.63-.3,1.94T376,62.84a19.37,19.37,0,0,0-.08,2.69,3.93,3.93,0,0,0,.41,1.83h-9.69a4.1,4.1,0,0,1-.23-1.43,15.38,15.38,0,0,1,.08-1.91q.1-1,.23-1.86c.08-.57.14-1,.17-1.31q.22-1.55.31-3a8.13,8.13,0,0,0-.23-2.69,3.64,3.64,0,0,0-1.21-1.92,4.08,4.08,0,0,0-2.62-.72h-7.43l-3.08,14.86h-9.8Zm6.12,17.72h8.22A5.33,5.33,0,0,0,369.3,43a6.24,6.24,0,0,0,1.9-3.57q.47-2.29-.75-3.34a4.87,4.87,0,0,0-3.28-1.06h-7.8Z"/><path class="cls-1" d="M395.42,26.54h30l-1.77,8.52H403.45L402,42.2h18.44l-1.71,8.23H400.27l-1.61,7.78h20.7l-1.9,9.15H387Z"/><path class="cls-1" d="M115.19,73.82h3.19V88.87h9.25v2.68H115.19Z"/><path class="cls-1" d="M145,73.82h3.39l7,17.73H152l-1.71-4.69H143l-1.71,4.69H138ZM143.89,84.5h5.56l-2.73-7.62h-.08Z"/><path class="cls-1" d="M167.46,73.82h8.84a6.45,6.45,0,0,1,3.92,1.09,4.36,4.36,0,0,1,.8,5.6A4.34,4.34,0,0,1,179.11,82v0a4,4,0,0,1,2.55,1.55,5,5,0,0,1,.87,3,5,5,0,0,1-.38,1.95,4,4,0,0,1-1.2,1.57,6.13,6.13,0,0,1-2.09,1,10.59,10.59,0,0,1-3,.38h-8.36Zm3.19,7.43h5.2a2.9,2.9,0,0,0,1.91-.63,2.24,2.24,0,0,0,.76-1.83,2.28,2.28,0,0,0-.69-1.89,3.14,3.14,0,0,0-2-.55h-5.2Zm0,7.77h5.63a3.22,3.22,0,0,0,2.25-.73,2.66,2.66,0,0,0,.8-2.07,2.56,2.56,0,0,0-.8-2,3.3,3.3,0,0,0-2.25-.71h-5.63Z"/><path class="cls-1" d="M203.47,73.4a8.66,8.66,0,0,1,3.66.75,8.19,8.19,0,0,1,2.74,2,8.88,8.88,0,0,1,1.72,3,11,11,0,0,1,0,7.18,8.9,8.9,0,0,1-1.72,3,8.06,8.06,0,0,1-2.74,2,9.5,9.5,0,0,1-7.31,0,8.05,8.05,0,0,1-2.74-2,8.89,8.89,0,0,1-1.72-3,11,11,0,0,1,0-7.18,8.87,8.87,0,0,1,1.72-3,8.19,8.19,0,0,1,2.74-2A8.65,8.65,0,0,1,203.47,73.4Zm0,2.53a5.2,5.2,0,0,0-2.51.57A4.87,4.87,0,0,0,199.24,78a6.8,6.8,0,0,0-1,2.17,9.83,9.83,0,0,0,0,5,6.78,6.78,0,0,0,1,2.17A4.9,4.9,0,0,0,201,88.87a5.82,5.82,0,0,0,5,0,4.91,4.91,0,0,0,1.72-1.53,6.83,6.83,0,0,0,1-2.17,9.84,9.84,0,0,0,0-5,6.85,6.85,0,0,0-1-2.17A4.88,4.88,0,0,0,206,76.51,5.21,5.21,0,0,0,203.47,75.93Z"/><path class="cls-1" d="M225.42,73.82h8.69a6.87,6.87,0,0,1,4.51,1.27,4.36,4.36,0,0,1,1.5,3.53,5,5,0,0,1-.38,2.1,4.56,4.56,0,0,1-.89,1.34,3.44,3.44,0,0,1-1,.73q-.5.22-.73.3v0a3.29,3.29,0,0,1,.88.25,2.58,2.58,0,0,1,.88.63,3.41,3.41,0,0,1,.68,1.13,4.89,4.89,0,0,1,.27,1.74,15.37,15.37,0,0,0,.24,2.84,3.68,3.68,0,0,0,.75,1.83H237.4a2.86,2.86,0,0,1-.42-1.27c0-.46-.06-.91-.06-1.34a12.32,12.32,0,0,0-.15-2.1,3.58,3.58,0,0,0-.56-1.46,2.37,2.37,0,0,0-1.11-.86,5,5,0,0,0-1.8-.27H228.6v7.3h-3.19Zm3.19,8.07h5.22a3.38,3.38,0,0,0,2.32-.71,2.71,2.71,0,0,0,.79-2.12,3.22,3.22,0,0,0-.26-1.38,2,2,0,0,0-.7-.83,2.6,2.6,0,0,0-1-.4,6.93,6.93,0,0,0-1.19-.1H228.6Z"/><path class="cls-1" d="M258.55,73.82h3.39l7,17.73h-3.42l-1.71-4.69h-7.26l-1.71,4.69h-3.29ZM257.43,84.5H263l-2.73-7.62h-.08Z"/><path class="cls-1" d="M276.92,73.82h14.73v2.68h-5.78V91.56h-3.19V76.51h-5.76Z"/><path class="cls-1" d="M311.84,73.4a8.66,8.66,0,0,1,3.66.75,8.19,8.19,0,0,1,2.74,2,8.88,8.88,0,0,1,1.72,3,11.06,11.06,0,0,1,0,7.18,8.9,8.9,0,0,1-1.72,3,8.05,8.05,0,0,1-2.74,2,9.49,9.49,0,0,1-7.31,0,8,8,0,0,1-2.74-2,8.9,8.9,0,0,1-1.72-3,11.06,11.06,0,0,1,0-7.18,8.88,8.88,0,0,1,1.72-3,8.17,8.17,0,0,1,2.74-2A8.65,8.65,0,0,1,311.84,73.4Zm0,2.53a5.2,5.2,0,0,0-2.51.57A4.86,4.86,0,0,0,307.61,78a6.79,6.79,0,0,0-1,2.17,9.82,9.82,0,0,0,0,5,6.77,6.77,0,0,0,1,2.17,4.89,4.89,0,0,0,1.72,1.53,5.82,5.82,0,0,0,5,0,4.91,4.91,0,0,0,1.72-1.53,6.84,6.84,0,0,0,1-2.17,9.85,9.85,0,0,0,0-5,6.86,6.86,0,0,0-1-2.17,4.89,4.89,0,0,0-1.72-1.53A5.21,5.21,0,0,0,311.84,75.93Z"/><path class="cls-1" d="M333.78,73.82h8.69A6.87,6.87,0,0,1,347,75.09a4.36,4.36,0,0,1,1.5,3.53,5,5,0,0,1-.38,2.1,4.56,4.56,0,0,1-.89,1.34,3.44,3.44,0,0,1-1,.73c-.33.15-.57.25-.73.3v0a3.33,3.33,0,0,1,.88.25,2.6,2.6,0,0,1,.88.63,3.41,3.41,0,0,1,.67,1.13,4.87,4.87,0,0,1,.27,1.74,15.19,15.19,0,0,0,.24,2.84,3.69,3.69,0,0,0,.75,1.83h-3.41a2.83,2.83,0,0,1-.42-1.27c0-.46-.06-.91-.06-1.34a12.53,12.53,0,0,0-.15-2.1,3.64,3.64,0,0,0-.56-1.46,2.38,2.38,0,0,0-1.11-.86,5,5,0,0,0-1.8-.27H337v7.3h-3.19ZM337,81.89h5.22a3.37,3.37,0,0,0,2.32-.71,2.71,2.71,0,0,0,.79-2.12,3.22,3.22,0,0,0-.25-1.38,2,2,0,0,0-.7-.83,2.6,2.6,0,0,0-1-.4,6.93,6.93,0,0,0-1.19-.1H337Z"/><path class="cls-1" d="M362,73.82h3.19V91.56H362Z"/><path class="cls-1" d="M379.45,73.82h13.1v2.68h-9.91v4.64h9.17v2.53h-9.17v5.19h10.09v2.68H379.45Z"/><path class="cls-1" d="M407.92,85.64a3.89,3.89,0,0,0,.36,1.74,3.15,3.15,0,0,0,1,1.18,4.26,4.26,0,0,0,1.46.67,7.27,7.27,0,0,0,1.8.21,5.89,5.89,0,0,0,1.78-.24,3.63,3.63,0,0,0,1.2-.61,2.22,2.22,0,0,0,.66-.86,2.53,2.53,0,0,0,.2-1,2.09,2.09,0,0,0-.47-1.5,2.73,2.73,0,0,0-1-.68,22.29,22.29,0,0,0-2.26-.66q-1.29-.31-3.17-.81a6.94,6.94,0,0,1-2-.78,4.67,4.67,0,0,1-1.24-1.08,3.77,3.77,0,0,1-.65-1.27,5,5,0,0,1-.19-1.37,4.52,4.52,0,0,1,.57-2.32,5,5,0,0,1,1.52-1.63,6.73,6.73,0,0,1,2.14-1,9.61,9.61,0,0,1,2.42-.31,9.74,9.74,0,0,1,2.69.36A6.73,6.73,0,0,1,417,74.84a5.37,5.37,0,0,1,1.52,1.78,5.14,5.14,0,0,1,.56,2.45h-3.19a3,3,0,0,0-1.2-2.42,4.85,4.85,0,0,0-2.73-.71,6,6,0,0,0-1.15.11,3.71,3.71,0,0,0-1.07.37,2.35,2.35,0,0,0-.8.71,2.12,2.12,0,0,0,.28,2.6,3.88,3.88,0,0,0,1.57.81l.8.21,1.57.41,1.69.43,1.19.31a5.35,5.35,0,0,1,1.56.75,4.82,4.82,0,0,1,1.11,1.08,4.45,4.45,0,0,1,.66,1.3,4.7,4.7,0,0,1,.22,1.39,4.91,4.91,0,0,1-.62,2.55,5.21,5.21,0,0,1-1.64,1.73,7.21,7.21,0,0,1-2.32,1,11.37,11.37,0,0,1-2.65.31,11.14,11.14,0,0,1-2.93-.37,7,7,0,0,1-2.4-1.14,5.61,5.61,0,0,1-1.63-2,6.41,6.41,0,0,1-.64-2.84Z"/><path class="cls-2" d="M1.48,42.78A54.58,54.58,0,0,0,5.42,77.84L30.09,35.12Z"/><path class="cls-2" d="M50.79,23.65,25.15,8.84A54.58,54.58,0,0,0,3.33,36.36Z"/><path class="cls-2" d="M57.79,85.05l26.3,15.18A54.56,54.56,0,0,0,106,72.12Z"/><path class="cls-2" d="M50,87.15h0l-.06,0L35,78.52l7.81,29.15A54.59,54.59,0,0,0,78.3,103.5Z"/><path class="cls-2" d="M23.57,57.86,8.65,83.7a54.56,54.56,0,0,0,27.77,22.14Z"/><path class="cls-2" d="M58.61,21.55h0l14.92,8.61L65.81,1.37A54.59,54.59,0,0,0,31,5.59Z"/><path class="cls-2" d="M85,50.87l15.06-26.08A54.57,54.57,0,0,0,72.21,3.13Z"/></g></g></svg>