<svg xmlns="http://www.w3.org/2000/svg" viewBox="0 0 224.28 118.03"><defs><style>.cls-1{fill:#1a1a18;fill-rule:evenodd;}</style></defs><title>Asset 1</title><g id="Layer_2" data-name="Layer 2"><g id="Layer_1-2" data-name="Layer 1"><path class="cls-1" d="M57.69,24.37l-1.93-11L54,24.37Zm1.25,6.57H52.76l-1.24,5.95H43.37L51.87.37H60.1l8.71,36.51H60.26l-1.32-5.95ZM70.85.37H79V24.42c0,1.09,0,3.45.6,4.41A2.46,2.46,0,0,0,81.89,30a2.4,2.4,0,0,0,2.64-1.82,18.19,18.19,0,0,0,.24-3.81V.37h8.11v27a14.41,14.41,0,0,1-.38,3.76A7.79,7.79,0,0,1,89,35.72a13.57,13.57,0,0,1-7.17,1.75,12.52,12.52,0,0,1-7.63-2.14A8.75,8.75,0,0,1,70.94,29a22,22,0,0,1-.08-2.7V.37ZM105.41,29.2h7.33v7.69H97.3V.37h8.11V29.2ZM123.78,8.06h5.47V.37h-19.1V8.06h5.52V36.88h8.11V8.06Zm4.9,7.19h14.65v7.37H128.69V15.25ZM157,8.06V36.88H148.9V8.06h-5.52V.37h19.1V8.06Zm16.86,0v6.59h6.21v7.79h-6.21V29.2H181v7.69H165.77V.37h15.17V8.06ZM203.28.75V8.31l-.68-.17A11,11,0,0,0,200,7.79,7,7,0,0,0,194.69,10a11.84,11.84,0,0,0-2.93,8.42,12.68,12.68,0,0,0,2.87,8.51A6.72,6.72,0,0,0,200,29.41a7.68,7.68,0,0,0,2.58-.52l.74-.27v7.91l-.38.13a11,11,0,0,1-3.52.6,14.64,14.64,0,0,1-7.3-1.91A16.56,16.56,0,0,1,185,27.24a22,22,0,0,1-1.75-8.83,19,19,0,0,1,5.18-13.67A14.29,14.29,0,0,1,199,0a13,13,0,0,1,3.84.63l.39.12ZM34.8,20,29.71.37H21L31.59,36.88h6.54L48.25.37H39.79Z"/><path class="cls-1" d="M112.14,43.46a37.19,37.19,0,0,1,27.81,12.45h35.37c6.23,0,14.46,4.42,14.46,5.47s-8.23,5.47-14.46,5.47H146.75A37,37,0,0,1,149,75.28h60.79c6.23,0,14.46,4.42,14.46,5.47s-8.23,5.47-14.46,5.47H149A37,37,0,0,1,147,94h28.31c6.23,0,14.46,4.42,14.46,5.47s-8.23,5.47-14.46,5.47h-34.8a37.28,37.28,0,0,1-56.74,0H49c-6.23,0-14.46-4.42-14.46-5.47S42.74,94,49,94H77.28a37,37,0,0,1-2-7.78H14.46C8.23,86.22,0,81.79,0,80.75s8.23-5.47,14.46-5.47H75.25a37,37,0,0,1,2.28-8.43H49c-6.23,0-14.46-4.42-14.46-5.47S42.74,55.91,49,55.91H84.33a37.19,37.19,0,0,1,27.81-12.45Zm0,8.34a28.94,28.94,0,1,0,28.94,28.94A28.94,28.94,0,0,0,112.14,51.8Zm0,11A17.9,17.9,0,1,0,130,80.75,17.9,17.9,0,0,0,112.14,62.85Z"/></g></g></svg>