<svg xmlns="http://www.w3.org/2000/svg" viewBox="0 0 81.43 81.43"><defs><style>.cls-1{fill:#4d4d4d;}.cls-1,.cls-2,.cls-3{stroke:#000;stroke-linejoin:round;stroke-width:2px;}.cls-1,.cls-2{fill-rule:evenodd;}.cls-2{fill:#fff;}.cls-3{fill:none;}</style></defs><title>Asset 1</title><g id="Layer_2" data-name="Layer 2"><g id="Layer_1-2" data-name="Layer 1"><path class="cls-1" d="M80.43,24.26v.11a137.28,137.28,0,0,0,0,32.78v0L40.88,40.78l0,0-.05,0-.07,0L80.43,24.26Z"/><path class="cls-2" d="M40.71,40.71,1,57.16H1A137.38,137.38,0,0,1,24.26,80.43L40.68,40.78l0-.07Z"/><path class="cls-1" d="M40.71,40.71l0,.07L24.26,80.43h0a137.34,137.34,0,0,1,32.86,0L40.78,40.88l0-.12,0,0Z"/><path class="cls-2" d="M57.16,1,40.71,40.71,80.43,24.26A137.22,137.22,0,0,1,57.33,1.2L57.16,1Z"/><path class="cls-2" d="M40.71,40.71,1,57.16,40.71,40.71,24.26,1A137.32,137.32,0,0,1,1.08,24.2L1,24.26H1L40.71,40.71Z"/><path class="cls-1" d="M40.71,40.71,1,57.16H1a137.37,137.37,0,0,0,0-32.9L40.71,40.71Z"/><path class="cls-2" d="M80.43,57.16A137.37,137.37,0,0,0,57.19,80.4l0,0L40.71,40.71,80.43,57.16Z"/><polygon class="cls-1" points="40.71 40.71 40.68 40.78 24.26 80.43 40.68 40.78 40.71 40.71 40.71 40.71"/><path class="cls-3" d="M80.43,57.16,40.88,40.78l0,0-.05,0-.07,0L1,57.16M40.71,40.71,24.26,1h0"/><path class="cls-1" d="M24.26,1l.26,0A137.2,137.2,0,0,0,57.16,1L40.71,40.71,24.26,1Z"/></g></g></svg>