<?xml version="1.0" encoding="UTF-8"?>
<svg width="792px" height="512px" viewBox="0 0 792 512" version="1.1" xmlns="http://www.w3.org/2000/svg" xmlns:xlink="http://www.w3.org/1999/xlink">
    <!-- Generator: Sketch 47.1 (45422) - http://www.bohemiancoding.com/sketch -->
    <title>html-css-logo</title>
    <desc>Created with Sketch.</desc>
    <defs></defs>
    <g id="Page-1" stroke="none" stroke-width="1" fill="none" fill-rule="evenodd">
        <g id="html-css-logo" fill-rule="nonzero">
            <polyline id="Shape" fill="#264DE4" points="181.145001 512 33.011001 470.877 1.00000003e-06 100.62 362.734001 100.62 329.688001 470.819"></polyline>
            <polyline id="Shape" fill="#2965F1" points="301.397001 447.246 329.637001 130.894 181.367001 130.894 181.367001 480.523"></polyline>
            <path d="M75.677001,268.217 L79.747001,313.627 L181.367001,313.627 L181.367001,268.217 M67.499001,176.305 L71.627001,221.716 L181.367001,221.716 L181.367001,176.305 L181.210001,176.305 M181.367001,386.153 L181.168001,386.206 L130.594001,372.55 L127.361001,336.333 L81.776001,336.333 L88.138001,407.634 L181.158001,433.457 L181.367001,433.399" id="Shape" fill="#EBEBEB"></path>
            <path d="M85.367001,0 L140.367001,0 L140.367001,23 L108.367001,23 L108.367001,46 L140.367001,46 L140.367001,69 L85.367001,69 L85.367001,0 Z M151.367001,0 L206.367001,0 L206.367001,20 L174.367001,20 L174.367001,24 L206.367001,24 L206.367001,70 L151.367001,70 L151.367001,49 L183.367001,49 L183.367001,45 L151.367001,45 L151.367001,0 Z M217.367001,0 L272.367001,0 L272.367001,20 L240.367001,20 L240.367001,24 L272.367001,24 L272.367001,70 L217.367001,70 L217.367001,49 L249.367001,49 L249.367001,45 L217.367001,45 L217.367001,0 Z" id="Shape" fill="#000000"></path>
            <polyline id="Shape" fill="#FFFFFF" points="286.766001 268.217 294.964001 176.305 181.210001 176.305 181.210001 221.716 245.198001 221.716 241.066001 268.217 181.210001 268.217 181.210001 313.627 237.128001 313.627 231.857001 372.521 181.210001 386.191 181.210001 433.435 274.304001 407.634 274.987001 399.962 285.658001 280.411"></polyline>
            <polyline id="Shape" fill="#E44D26" points="791.30543 100.62 758.25943 470.819 609.71643 512 461.58243 470.877 428.57143 100.62"></polyline>
            <polyline id="Shape" fill="#F16529" points="609.93843 480.523 729.96843 447.246 758.20843 130.894 609.93843 130.894"></polyline>
            <path d="M545.69843,221.716 L609.93843,221.716 L609.93843,176.305 L496.07043,176.305 L497.15743,188.488 L508.31843,313.627 L609.93843,313.627 L609.93843,268.217 L549.84843,268.217 M555.93243,336.333 L510.34743,336.333 L516.70943,407.634 L609.72943,433.457 L609.93843,433.399 L609.93843,386.153 L609.73943,386.206 L559.16543,372.55" id="Shape" fill="#EBEBEB"></path>
            <path d="M462.32043,0 L485.39743,0 L485.39743,22.8 L506.50743,22.8 L506.50743,0 L529.58543,0 L529.58543,69.044 L506.50843,69.044 L506.50843,45.924 L485.39843,45.924 L485.39843,69.044 L462.32143,69.044 L462.32143,0 L462.32043,0 Z M559.93243,22.896 L539.61643,22.896 L539.61643,0 L603.33643,0 L603.33643,22.896 L583.01143,22.896 L583.01143,69.044 L559.93343,69.044 L559.93343,22.896 L559.93243,22.896 Z M613.44943,0 L637.51243,0 L652.31443,24.26 L667.10143,0 L691.17343,0 L691.17343,69.044 L668.19143,69.044 L668.19143,34.822 L652.31443,59.371 L651.91743,59.371 L636.02943,34.822 L636.02943,69.044 L613.44943,69.044 L613.44943,0 Z M702.65843,0 L725.74243,0 L725.74243,46.222 L758.19543,46.222 L758.19543,69.044 L702.65843,69.044 L702.65843,0 L702.65843,0 Z" id="Shape" fill="#000000"></path>
            <path d="M609.78143,313.627 L665.69943,313.627 L660.42843,372.521 L609.78143,386.191 L609.78143,433.435 L702.87543,407.634 L703.55843,399.962 L714.22943,280.411 L715.33743,268.217 L609.78143,268.217 M609.78143,221.605 L609.78143,221.716 L719.46943,221.716 L720.38043,211.509 L722.44943,188.488 L723.53543,176.305 L609.78143,176.305 L609.78143,204.509" id="Shape" fill="#FFFFFF"></path>
        </g>
    </g>
</svg>