<svg xmlns="http://www.w3.org/2000/svg" viewBox="0 0 520.12 118.2"><defs><style>.cls-1{fill:#136bb0;}.cls-2{fill:#231f20;}</style></defs><title>Asset 1</title><g id="Layer_2" data-name="Layer 2"><g id="Isotipo"><path class="cls-1" d="M9.81,27.92l.42-1.36c-.23,0,1.84-3.19,1.61-3.19C-3.35,38.08-2,57.75,5.27,71.9A54.89,54.89,0,0,0,30.77,96,51.73,51.73,0,0,0,52,100.23c17.65-.37,30-8.71,37-22.31l.41-1.06c-6.16,6.21-16.21,10.53-24.08,11.33C32.58,91.55-1.14,62.19,9.81,27.92Z"/><path class="cls-1" d="M53.32,32.94c4.33,7,12.59,13.08,25.5,10.33,3.26-.69,10.64-6.25,11.92-9.19-11.06,7.53-17.93,5-21.18,4.05a20.75,20.75,0,0,1-3.92-1.88c-3.43-2.06-5.12-3-7.79-6.89a27.57,27.57,0,0,1-3.41-7.46,23.52,23.52,0,0,1,.93-12.4c-5,4.47-5.78,13.1-4.1,18.81A31.87,31.87,0,0,0,53.32,32.94Z"/><path class="cls-1" d="M56.86,69.77c17.33,2.32,30.25-5,34.71-16.29a31.35,31.35,0,0,1-22,9.21C51.17,62.57,30.45,46.05,32.77,23a25.85,25.85,0,0,1,3.12-9.12C29.78,21.61,26.07,28,27.11,38.61,28.53,53.23,42.35,67.83,56.86,69.77Z"/><path class="cls-2" d="M498.28,8.74,467,52.07l-2.83-11.33H443.62s2,10.31,3.54,15.58,4.14,10.39,4.25,15.58c.13,5.94-3,17.1-3,17.1l20-.1s2.15-10.7,4.25-15.58c.83-1.94,2.46-3.51,3.54-5l43.92-59.5Z"/><path class="cls-2" d="M456.93,20.34c-4.39-2.64-14.83-1.5-23.77-1.5H419.33c-8.66,0-13.79-.57-14.67,2.77C402,31.93,390.49,88.9,390.49,88.9h18.42l12-52.42h9.92c11.47,0,32.56-.31,32.56-.31S461,22.77,456.93,20.34Z"/><path class="cls-2" d="M386.42,25.91c-3.86-5.38-11.76-7.25-17-7.79-13.9-1.42-25.48,2.3-31.87,7.08a29.24,29.24,0,0,0-5,4.25A24.33,24.33,0,0,0,331,31.4c-.41.58-.9,1-1.3,1.59-.59.89-1.21,2.58-1.95,4.07-.59,1.2-1.15,2.61-1.59,3.72-3.84,9.59-7.76,27.49-4.25,36.83A18.51,18.51,0,0,0,324,81.28c.5.67.95,1.44,1.47,2a15.63,15.63,0,0,0,7.79,4.25c15.35,3.66,46,2.12,46,2.12L383.1,73s-21.72,1-32.1-.34c-1.55-.2-5.87-.42-8.09-2.36-1.93-1.69-4.2-5.67-2.54-8.27,1.18-1.85,5.94-1.3,9.92-1.42,12.79-.39,36.12,0,36.12,0s4.47-19.88,2.12-28.33C388,30.21,387.45,27.35,386.42,25.91Zm-15.23,20-27.45-.18s-.31-11.86,15.69-11.35c5.67.18,7.66.95,9.81,4.27A11,11,0,0,1,371.19,45.87Z"/><path class="cls-2" d="M304.07,18.77,291.32,71.9s-7.05,0-9.21,0c-6.8-.16-9-.38-10.62-3.54-1.68-3.32-.07-7.55.71-12,2.17-12.54,7.4-37.65,7.4-37.65l-18.5.17s-3.52,16.13-5.19,24c-2.37,11.15-7.4,27.56-2.12,37.54,5.44,10.28,18.23,8.5,32.58,8.5h20.54c5.07-23,15-70.23,15-70.23Z"/><path class="cls-2" d="M245.28,26.56C244.19,18.65,239,10,233.36,6.43c-.23-.14-1.25-1-1.54-1.12a44.88,44.88,0,0,0-15.58-5C192.13-2.12,177.75,8.59,169.49,23a72.88,72.88,0,0,0-7.08,18.42c-1.86,7.27-3.19,16.08-2.12,24.08.64,4.8,3.27,11.61,7.08,15.58,9.38,9.78,27.79,8.5,47.46,8.5,6,0,20.49-.12,24.85-.23,1.41,0,5.46-16.5,5.09-17s-5.16.16-10.66-.33C239.49,57.77,247.32,41.4,245.28,26.56ZM220.49,52.77c-1.79,6.33-3.54,12.72-5.67,18.42-14.32-.08-27.61,1.87-31.88-7.08-2.41-5.06-1.33-11.92,0-18.42,1.78-8.75,3.48-15.1,8.5-20.54,3.88-4.2,13.65-9.35,24.08-5.67,3.46,1.23,8.83,7.06,9.21,13.46C225.08,38.93,222.36,46.13,220.49,52.77Z"/><path class="cls-2" d="M134.78,35.77h19.83c1.25-5.35,2.44-11.5,3.63-16.92-7,0-12.87-.08-19.22-.08C137.49,23.94,136.31,29.84,134.78,35.77Z"/><path class="cls-2" d="M126.28,73.32c-2.92,13.76-3.31,28-18.42,26.21-1.44,5.31-3.28,12.43-4.9,18.36,6.2.13,11.9.6,16.94.06,3.1-.34,8.71-1.68,9.92-2.83.49-.47.83-.25,1.42-.71,6.57-5.13,8.19-12.23,10.62-22,3.88-15.54,8.83-37.87,11.33-51.71H134.07C133.1,43.92,128,65.37,126.28,73.32Z"/></g></g></svg>