<svg width="135" height="60" viewBox="0 0 135 60" version="1.1" xmlns="http://www.w3.org/2000/svg" xmlns:xlink="http://www.w3.org/1999/xlink">
<title>micromedia-logo</title>
<desc>Created using Figma</desc>
<g id="Canvas" transform="translate(-653 -80)">
<g id="micromedia-logo">
<g id="micromedia logo">
<g id="Group">
<g id="Vector">
<use xlink:href="#path0_fill" transform="translate(653 126.329)" fill="#FFFFFF"/>
</g>
<g id="Vector">
<use xlink:href="#path1_fill" transform="translate(674.32 121.413)" fill="#FFFFFF"/>
</g>
<g id="Vector">
<use xlink:href="#path2_fill" transform="translate(680.174 126.329)" fill="#FFFFFF"/>
</g>
<g id="Vector">
<use xlink:href="#path3_fill" transform="translate(694.361 126.605)" fill="#FFFFFF"/>
</g>
<g id="Vector">
<use xlink:href="#path4_fill" transform="translate(703.232 126.329)" fill="#FFFFFF"/>
</g>
<g id="Vector">
<use xlink:href="#path5_fill" transform="translate(719.03 126.329)" fill="#FFFFFF"/>
</g>
<g id="Vector">
<use xlink:href="#path6_fill" transform="translate(739.966 126.329)" fill="#FFFFFF"/>
</g>
<g id="Vector">
<use xlink:href="#path7_fill" transform="translate(754.409 121.764)" fill="#FFFFFF"/>
</g>
<g id="Vector">
<use xlink:href="#path8_fill" transform="translate(770.054 121.413)" fill="#FFFFFF"/>
</g>
<g id="Vector">
<use xlink:href="#path9_fill" transform="translate(776.113 126.329)" fill="#FFFFFF"/>
</g>
</g>
<g id="Vector">
<use xlink:href="#path10_fill" transform="translate(730.053 80)" fill="#FFFFFF"/>
</g>
<g id="Vector">
<use xlink:href="#path11_fill" transform="translate(715.212 91.8541)" fill="#FFFFFF"/>
</g>
<g id="Vector">
<use xlink:href="#path12_fill" transform="translate(700.371 80)" fill="#FFFFFF"/>
</g>
</g>
</g>
</g>
<defs>
<path id="path0_fill" d="M 14.3669 4.20091e-07C 12.4491 4.20091e-07 11.2226 0.803319 10.4551 1.88195C 9.76467 0.702044 8.5382 4.20091e-07 6.82575 4.20091e-07C 4.98504 4.20091e-07 3.78362 0.753172 3.09323 1.85638C 3.09323 1.85638 3.09323 1.69808 3.09323 1.48766C 3.09323 1.20645 2.979 0.936056 2.77659 0.737439C 2.57419 0.538822 2.29863 0.42673 2.01205 0.42673C 1.71045 0.42673 1.38279 0.42673 1.08118 0.42673C 0.794601 0.42673 0.519046 0.538822 0.316638 0.737439C 0.11423 0.936056 -5.4947e-09 1.20645 -5.4947e-09 1.48766C -5.4947e-09 3.89958 -5.4947e-09 9.77254 -5.4947e-09 12.1845C -5.4947e-09 12.4657 0.11423 12.7351 0.316638 12.9337C 0.519046 13.1333 0.794601 13.2444 1.08118 13.2444C 1.45293 13.2444 1.86977 13.2444 2.24252 13.2444C 2.5291 13.2444 2.80365 13.1333 3.00606 12.9337C 3.20947 12.7351 3.32269 12.4657 3.32269 12.1845C 3.32269 10.0351 3.32269 5.36856 3.32269 5.36856C 3.32269 3.93891 4.11529 2.80915 5.62433 2.80915C 7.15742 2.80915 7.6945 3.83763 7.6945 5.26826C 7.6945 5.26826 7.6945 10.0134 7.6945 12.1845C 7.6945 12.4657 7.80873 12.7351 8.01114 12.9337C 8.21355 13.1333 8.4891 13.2444 8.77568 13.2444C 9.14743 13.2444 9.56427 13.2444 9.93702 13.2444C 10.2236 13.2444 10.4982 13.1333 10.7016 12.9337C 10.904 12.7351 11.0182 12.4657 11.0182 12.1845C 11.0182 10.0351 11.0182 5.36856 11.0182 5.36856C 11.0182 3.91334 11.8098 2.80915 13.3188 2.80915C 14.8269 2.80915 15.389 3.83763 15.389 5.26826C 15.389 5.26826 15.389 10.0134 15.389 12.1845C 15.389 12.4657 15.5032 12.7351 15.7056 12.9337C 15.9081 13.1333 16.1836 13.2444 16.4702 13.2444C 16.8419 13.2444 17.2588 13.2444 17.6315 13.2444C 17.9181 13.2444 18.1927 13.1333 18.3961 12.9337C 18.5985 12.7351 18.7127 12.4657 18.7127 12.1845C 18.7127 9.81285 18.7127 4.28993 18.7127 4.28993C 18.7127 1.68038 17.1786 4.20091e-07 14.3669 4.20091e-07Z"/>
<path id="path1_fill" d="M 1.96797 3.81305C 3.06718 3.81305 3.93693 2.95959 3.93693 1.90653C 3.93693 0.852479 3.06718 4.20091e-07 1.96797 4.20091e-07C 0.868751 4.20091e-07 -4.43398e-07 0.852479 -4.43398e-07 1.90653C -4.43398e-07 2.95959 0.868751 3.81305 1.96797 3.81305ZM 3.62931 6.34886C 3.62931 5.79332 3.17139 5.34299 2.60525 5.34299C 2.20043 5.34299 1.7365 5.34299 1.33168 5.34299C 0.765543 5.34299 0.306617 5.79332 0.306617 6.34886C 0.306617 8.74308 0.306617 14.7606 0.306617 17.1558C 0.306617 17.7113 0.765543 18.1607 1.33168 18.1607C 1.7365 18.1607 2.20043 18.1607 2.60525 18.1607C 3.17139 18.1607 3.62931 17.7113 3.62931 17.1558C 3.62931 14.7606 3.62931 8.74308 3.62931 6.34886Z"/>
<path id="path2_fill" d="M 9.42098 3.81108C 9.85786 4.14834 10.4821 4.11392 10.8769 3.73144C 11.0543 3.56232 11.2437 3.37845 11.422 3.2054C 11.6435 2.99105 11.7627 2.69608 11.7497 2.39127C 11.7376 2.08744 11.5954 1.8023 11.3579 1.60565C 9.91598 0.401167 8.47408 4.20091e-07 6.7486 4.20091e-07C 2.81167 4.20091e-07 5.19846e-07 2.58399 5.19846e-07 6.82279C 5.19846e-07 11.0626 2.73551 13.6466 6.67245 13.6466C 8.62237 13.6466 10.1224 13.148 11.6865 11.567C 11.903 11.3526 12.0172 11.0586 12.0032 10.7578C 11.9882 10.4559 11.8459 10.1747 11.6104 9.98099C 11.429 9.82662 11.2346 9.66733 11.0543 9.51886C 10.6284 9.16981 10.0052 9.18456 9.59734 9.55328C 8.5873 10.4864 7.77667 10.862 6.72355 10.862C 4.55017 10.862 3.3748 9.05575 3.3748 6.82279C 3.3748 4.5908 4.55017 2.75901 6.7486 2.75901C 7.5923 2.75901 8.34882 2.9645 9.42098 3.81108Z"/>
<path id="path3_fill" d="M 6.36482 -1.32028e-06C 4.75458 -1.32028e-06 3.70647 0.802334 3.09323 2.0314C 3.09323 2.0314 3.09323 1.69316 3.09323 1.30281C 3.09323 0.997017 2.96898 0.704009 2.74954 0.487694C 2.5291 0.271378 2.22949 0.150436 1.91786 0.150436C 1.67437 0.150436 1.41886 0.150436 1.17537 0.150436C 0.526061 0.150436 9.17376e-07 0.666644 9.17376e-07 1.30281C 9.17376e-07 3.73832 9.17376e-07 9.38023 9.17376e-07 11.8157C 9.17376e-07 12.4519 0.526061 12.9681 1.17537 12.9681C 1.49101 12.9681 1.83269 12.9681 2.14833 12.9681C 2.79763 12.9681 3.3237 12.4519 3.3237 11.8157C 3.3237 9.99181 3.3237 6.64678 3.3237 6.64678C 3.3237 4.33909 4.42291 2.95959 6.18647 2.95959C 6.37084 2.95959 6.57425 2.97335 6.7997 3.00285C 7.40191 3.06775 7.95503 2.67248 8.07627 2.08941C 8.15844 1.71282 8.24361 1.30477 8.31074 0.982268C 8.38289 0.633213 8.16245 0.290059 7.81074 0.20255C 7.31374 0.0776768 6.87886 -1.32028e-06 6.36482 -1.32028e-06Z"/>
<path id="path4_fill" d="M 6.7997 4.20091e-07C 2.81167 4.20091e-07 1.55954e-06 2.759 1.55954e-06 6.82279C 1.55954e-06 10.8866 2.81167 13.6466 6.7997 13.6466C 10.7617 13.6466 13.5733 10.8866 13.5733 6.82279C 13.5733 2.759 10.7617 4.20091e-07 6.7997 4.20091e-07ZM 6.7997 2.75901C 8.84482 2.75901 10.1995 4.36466 10.1995 6.82279C 10.1995 9.30648 8.84482 10.8866 6.7997 10.8866C 4.72853 10.8866 3.3738 9.30648 3.3738 6.82279C 3.3738 4.36466 4.72853 2.75901 6.7997 2.75901Z"/>
<path id="path5_fill" d="M 14.3669 4.20091e-07C 12.4491 4.20091e-07 11.2226 0.803319 10.4551 1.88195C 9.76468 0.702044 8.5382 4.20091e-07 6.82575 4.20091e-07C 4.98504 4.20091e-07 3.78363 0.753172 3.09323 1.85638C 3.09323 1.85638 3.09323 1.69119 3.09323 1.4739C 3.09323 1.19662 2.981 0.930155 2.7806 0.733505C 2.5802 0.536854 2.30865 0.42673 2.02608 0.42673C 1.71546 0.42673 1.37677 0.42673 1.06715 0.42673C 0.78458 0.42673 0.513034 0.536854 0.312631 0.733505C 0.112227 0.930155 -3.42487e-06 1.19662 -3.42487e-06 1.4739C -3.42487e-06 3.88188 -3.42487e-06 9.78926 -3.42487e-06 12.1972C -3.42487e-06 12.4755 0.112227 12.742 0.312631 12.9376C 0.513034 13.1343 0.78458 13.2444 1.06715 13.2444C 1.44792 13.2444 1.87578 13.2444 2.25555 13.2444C 2.84474 13.2444 3.32269 12.7754 3.32269 12.1972C 3.32269 10.0538 3.32269 5.36856 3.32269 5.36856C 3.32269 3.93891 4.1153 2.80915 5.62333 2.80915C 7.15742 2.80915 7.6945 3.83763 7.6945 5.26826C 7.6945 5.26826 7.6945 10.0331 7.6945 12.1972C 7.6945 12.7754 8.17247 13.2444 8.76165 13.2444C 9.14242 13.2444 9.57028 13.2444 9.95004 13.2444C 10.5402 13.2444 11.0172 12.7754 11.0172 12.1972C 11.0172 10.0538 11.0172 5.36856 11.0172 5.36856C 11.0172 3.91334 11.8098 2.80915 13.3188 2.80915C 14.8269 2.80915 15.389 3.83763 15.389 5.26826C 15.389 5.26826 15.389 10.0331 15.389 12.1972C 15.389 12.7754 15.867 13.2444 16.4562 13.2444C 16.8369 13.2444 17.2648 13.2444 17.6445 13.2444C 17.9281 13.2444 18.1997 13.1343 18.4001 12.9376C 18.5995 12.742 18.7127 12.4755 18.7127 12.1972C 18.7127 9.8335 18.7127 4.28993 18.7127 4.28993C 18.7127 1.68038 17.1786 4.20091e-07 14.3669 4.20091e-07Z"/>
<path id="path6_fill" d="M 6.92796 10.8866C 4.65238 10.8866 3.52811 9.53263 3.24654 7.67625C 3.24654 7.67625 9.22859 7.67625 11.6395 7.67625C 12.2056 7.67625 12.6675 7.22985 12.6765 6.67431C 12.6785 6.57599 12.6795 6.4816 12.6795 6.39704C 12.6795 2.45813 10.5573 4.20091e-07 6.57024 4.20091e-07C 2.45395 4.20091e-07 1.40664e-06 2.93501 1.40664e-06 6.8985C 1.40664e-06 10.9869 2.6333 13.6466 6.8508 13.6466C 8.67648 13.6466 10.2567 13.2002 11.8829 11.862C 12.1004 11.684 12.2346 11.4274 12.2537 11.1511C 12.2737 10.8748 12.1765 10.6024 11.9861 10.3969C 11.8188 10.2121 11.6384 10.0174 11.4701 9.83744C 11.1094 9.44905 10.5062 9.39497 10.0793 9.71158C 8.97709 10.5424 8.19852 10.8866 6.92796 10.8866ZM 6.46804 2.55842C 8.28269 2.55842 9.30475 3.63705 9.43301 5.34299L 3.3237 5.34299C 3.68142 3.68719 4.70348 2.55842 6.46804 2.55842Z"/>
<path id="path7_fill" d="M 10.7687 -1.11024e-06C 10.1865 -1.11024e-06 9.71458 0.463112 9.71458 1.03536C 9.71458 2.82783 9.71458 6.32133 9.71458 6.32133C 8.84482 5.2427 7.56725 4.64095 5.8027 4.64095C 2.48 4.64095 2.87444e-06 7.24952 2.87444e-06 11.4136C 2.87444e-06 15.5521 2.45395 18.1862 5.77764 18.1862C 7.72056 18.1862 9.07528 17.4085 9.94404 16.1293C 9.94404 16.1293 9.94404 16.4292 9.94404 16.7753C 9.94404 17.0496 10.0553 17.3131 10.2537 17.5068C 10.4511 17.7015 10.7196 17.8096 10.9992 17.8096C 11.3168 17.8096 11.6655 17.8096 11.9831 17.8096C 12.2627 17.8096 12.5312 17.7015 12.7286 17.5068C 12.926 17.3131 13.0373 17.0496 13.0373 16.7753C 13.0373 13.6259 13.0373 4.18374 13.0373 1.03536C 13.0373 0.463112 12.5653 -1.11024e-06 11.9831 -1.11024e-06C 11.5954 -1.11024e-06 11.1565 -1.11024e-06 10.7687 -1.11024e-06ZM 6.54419 15.3771C 4.57622 15.3771 3.3748 13.8216 3.3748 11.4136C 3.3748 8.98004 4.67843 7.47566 6.57024 7.47566C 8.41095 7.47566 9.84183 8.90531 9.84183 11.4136C 9.84183 13.8717 8.46205 15.3771 6.54419 15.3771Z"/>
<path id="path8_fill" d="M 1.96897 3.81305C 3.06818 3.81305 3.93694 2.95959 3.93694 1.90653C 3.93694 0.852479 3.06818 4.20091e-07 1.96897 4.20091e-07C 0.869751 4.20091e-07 1.83475e-06 0.852479 1.83475e-06 1.90653C 1.83475e-06 2.95959 0.869751 3.81305 1.96897 3.81305ZM 3.63032 6.4226C 3.63032 5.82577 3.13833 5.34299 2.5301 5.34299C 2.16937 5.34299 1.76856 5.34299 1.40684 5.34299C 0.799612 5.34299 0.307621 5.82577 0.307621 6.4226C 0.307621 8.83943 0.307621 14.6642 0.307621 17.082C 0.307621 17.6779 0.799612 18.1607 1.40684 18.1607C 1.76856 18.1607 2.16937 18.1607 2.5301 18.1607C 3.13833 18.1607 3.63032 17.6779 3.63032 17.082C 3.63032 14.6642 3.63032 8.83943 3.63032 6.4226Z"/>
<path id="path9_fill" d="M 6.21152 4.20091e-07C 4.03113 4.20091e-07 2.34372 0.698109 0.885786 2.06286C 0.670352 2.26246 0.55011 2.54072 0.552114 2.83177C 0.55512 3.12281 0.680373 3.3991 0.898813 3.59575C 1.08419 3.76585 1.28259 3.94481 1.46696 4.10999C 1.87077 4.47281 2.48901 4.47674 2.89884 4.12081C 3.91488 3.2231 4.79666 2.68428 6.26262 2.68428C 7.77066 2.68428 8.71657 3.38632 8.71657 4.64095L 8.71657 4.94183L 5.64938 5.49343C 2.68341 6.02045 -1.10085e-06 7.04893 -1.10085e-06 10.0085C -1.10085e-06 12.6181 2.19843 13.6711 4.67742 13.6711C 6.69749 13.6711 8.10333 12.9937 8.89593 11.915C 8.89593 11.915 8.89593 12.0311 8.89593 12.1943C 8.89593 12.4726 9.00814 12.74 9.20955 12.9366C 9.40995 13.1343 9.68251 13.2444 9.96608 13.2444C 10.2426 13.2444 10.5402 13.2444 10.8158 13.2444C 11.1004 13.2444 11.3719 13.1343 11.5733 12.9366C 11.7737 12.74 11.887 12.4726 11.887 12.1943C 11.887 9.88857 11.887 4.5908 11.887 4.5908C 11.887 1.88194 9.96909 4.20091e-07 6.21152 4.20091e-07ZM 5.24055 11.0626C 3.98803 11.0626 3.24654 10.5857 3.24654 9.78336C 3.24654 8.57887 4.55017 8.12756 6.51814 7.72639L 8.71657 7.27508L 8.71657 8.02727C 8.71657 10.2593 6.92695 11.0626 5.24055 11.0626Z"/>
<path id="path10_fill" fill-rule="evenodd" d="M 3.6695e-06 28.3609C 3.6695e-06 31.2241 2.36977 33.5495 5.28765 33.5495C 8.20553 33.5495 10.5753 31.2241 10.5753 28.3609L 10.5753 5.18764C 10.5753 2.32441 8.20553 1.8168e-09 5.28765 1.8168e-09C 2.36977 1.8168e-09 3.6695e-06 2.32441 3.6695e-06 5.18764L 3.6695e-06 28.3609Z"/>
<path id="path11_fill" fill-rule="evenodd" d="M -9.78534e-07 16.5068C -9.78534e-07 19.3701 2.36977 21.6955 5.28765 21.6955C 8.20553 21.6955 10.5753 19.3701 10.5753 16.5068L 10.5753 5.18862C 10.5753 2.32441 8.20553 1.50032e-07 5.28765 1.50032e-07C 2.36977 1.50032e-07 -9.78534e-07 2.32441 -9.78534e-07 5.18862L -9.78534e-07 16.5068Z"/>
<path id="path12_fill" fill-rule="evenodd" d="M -1.80417e-06 28.3609C -1.80417e-06 31.2241 2.36877 33.5495 5.28765 33.5495C 8.20553 33.5495 10.5743 31.2241 10.5743 28.3609L 10.5743 5.18764C 10.5743 2.32441 8.20553 1.8168e-09 5.28765 1.8168e-09C 2.36877 1.8168e-09 -1.80417e-06 2.32441 -1.80417e-06 5.18764L -1.80417e-06 28.3609Z"/>
</defs>
</svg>
