<svg xmlns="http://www.w3.org/2000/svg" width="315" height="299.9986" xmlns:xlink="http://www.w3.org/1999/xlink"><defs><linearGradient id="n"><stop offset="0" stop-color="#33bdf2" stop-opacity=".69803923"/><stop offset="1" stop-color="#1dacd8"/></linearGradient><linearGradient id="m"><stop offset="0" stop-color="#05a1e6" stop-opacity=".24705882"/><stop offset="1" stop-color="#05a1e6"/></linearGradient><linearGradient id="a" x2="1" gradientUnits="userSpaceOnUse" gradientTransform="matrix(0,-29.661301,-29.661301,0,2008.5107,86.026367)"><stop offset="0" stop-color="#0994dc"/><stop offset=".35000601" stop-color="#66cef5"/><stop offset=".35000601" stop-color="#66cef5"/><stop offset=".84616101" stop-color="#127bca"/><stop offset=".84616101" stop-color="#127bca"/><stop offset="1" stop-color="#127bca"/></linearGradient><linearGradient id="b" x2="1" gradientUnits="userSpaceOnUse" gradientTransform="matrix(0,-30.417221,-30.417221,0,2009.6416,86.777344)"><stop offset="0" stop-color="#0e76bc"/><stop offset=".360001" stop-color="#36aee8"/><stop offset=".360001" stop-color="#36aee8"/><stop offset=".84616101" stop-color="#00adef"/><stop offset=".84616101" stop-color="#00adef"/><stop offset="1" stop-color="#00adef"/></linearGradient><linearGradient id="o" x2="1" gradientUnits="userSpaceOnUse" gradientTransform="matrix(0,24.20256,24.20256,0,2015.7549,62.94043)"><stop offset="0" stop-color="#1c63b7"/><stop offset=".5" stop-color="#33bdf2"/><stop offset="1" stop-color="#33bdf2" stop-opacity=".41960785"/></linearGradient><linearGradient id="c" x2="1" gradientUnits="userSpaceOnUse" gradientTransform="matrix(0,-31.580948,-31.580948,0,2014.1641,89.859375)"><stop offset="0" stop-color="#166ab8"/><stop offset=".39999399" stop-color="#36aee8"/><stop offset=".39999399" stop-color="#36aee8"/><stop offset=".84616101" stop-color="#0798dd"/><stop offset=".84616101" stop-color="#0798dd"/><stop offset="1" stop-color="#0798dd"/></linearGradient><linearGradient id="d" x2="1" gradientUnits="userSpaceOnUse" gradientTransform="matrix(0,-33.582153,-33.582153,0,2011.6748,89.693359)"><stop offset="0" stop-color="#124379"/><stop offset=".389999" stop-color="#1487cb"/><stop offset=".389999" stop-color="#1487cb"/><stop offset=".78022802" stop-color="#165197"/><stop offset=".78022802" stop-color="#165197"/><stop offset="1" stop-color="#165197"/></linearGradient><linearGradient id="r" x2="1" gradientUnits="userSpaceOnUse" gradientTransform="matrix(0,23.576645,23.576645,0,2033.8457,63.546875)"><stop offset="0" stop-color="#136ab4"/><stop offset=".60000002" stop-color="#59caf5" stop-opacity=".54901963"/><stop offset="1" stop-color="#59caf5" stop-opacity=".23529412"/></linearGradient><linearGradient id="e" x2="1" gradientUnits="userSpaceOnUse" gradientTransform="matrix(0,24.140579,24.140579,0,1991.0918,62.953125)"><stop offset="0" stop-color="#318ed5"/><stop offset="1" stop-color="#38a7e4"/></linearGradient><linearGradient id="l" x2="1" gradientUnits="userSpaceOnUse" gradientTransform="matrix(0,23.465958,23.465958,0,1992.6113,62.868164)"><stop offset="0" stop-color="#05a1e6"/><stop offset="1" stop-color="#05a1e6" stop-opacity=".54901963"/></linearGradient><linearGradient id="f" x2="1" gradientUnits="userSpaceOnUse" gradientTransform="matrix(0,19.829102,19.829102,0,1993.873,61.670898)"><stop offset="0" stop-color="#1959a6"/><stop offset=".5" stop-color="#05a1e6"/><stop offset=".5" stop-color="#05a1e6"/><stop offset=".91758698" stop-color="#7ec5ea"/><stop offset="1" stop-color="#7ec5ea"/></linearGradient><linearGradient id="g" x2="1" gradientUnits="userSpaceOnUse" gradientTransform="matrix(-3.7910919,21.500351,21.500351,3.7910919,1994.6328,62.9375)"><stop offset="0" stop-color="#165096"/><stop offset="1" stop-color="#0d82ca"/></linearGradient><linearGradient id="h" x2="1" gradientUnits="userSpaceOnUse" gradientTransform="matrix(0,11.235931,11.235931,0,2029.8086,75.09668)"><stop offset="0" stop-color="#05a1e6"/><stop offset=".87362701" stop-color="#0495d6"/><stop offset="1" stop-color="#0495d6"/></linearGradient><linearGradient id="q" x2="1" gradientUnits="userSpaceOnUse" gradientTransform="matrix(-4.5685425,-25.909454,-25.909454,4.5685425,2035.0898,87.371094)"><stop offset="0" stop-color="#38a7e4" stop-opacity=".32941177"/><stop offset=".96153301" stop-color="#0e88d3"/><stop offset=".96153301" stop-color="#0e88d3"/><stop offset="1" stop-color="#0e88d3"/></linearGradient><linearGradient id="i" x2="1" gradientUnits="userSpaceOnUse" gradientTransform="matrix(0,-24.512451,-24.512451,0,2031,86.461914)"><stop offset="0" stop-color="#168cd4"/><stop offset=".5" stop-color="#1c87cc"/><stop offset="1" stop-color="#154b8d"/></linearGradient><linearGradient id="k" x2="1" gradientUnits="userSpaceOnUse" gradientTransform="matrix(5.646286,-2.3419189,-2.3419189,-5.646286,1999.7344,86.96582)"><stop offset="0" stop-color="#97d6ee"/><stop offset=".70329303" stop-color="#55c1ea"/><stop offset="1" stop-color="#55c1ea"/></linearGradient><linearGradient id="j" x2="1" gradientUnits="userSpaceOnUse" gradientTransform="matrix(4.4594269,2.0216064,2.0216064,-4.4594269,2002.999,84.154297)"><stop offset="0" stop-color="#7accec"/><stop offset="1" stop-color="#3fb7ed"/></linearGradient><linearGradient id="p" x2="1" gradientUnits="userSpaceOnUse" gradientTransform="matrix(0,-23.975632,-23.975632,0,2027.6816,85.106445)"><stop offset="0" stop-color="#1da7e7"/><stop offset="1" stop-color="#37abe7" stop-opacity="0"/></linearGradient><linearGradient id="s" x2="1" xlink:href="#a" gradientUnits="userSpaceOnUse" gradientTransform="matrix(0,149.73457,-149.73457,0,1074.9953,1836.3358)"/><linearGradient id="t" x2="1" xlink:href="#b" gradientUnits="userSpaceOnUse" gradientTransform="matrix(0,153.55057,-153.55057,0,1080.7042,1832.5448)"/><linearGradient id="v" x2="1" xlink:href="#c" gradientUnits="userSpaceOnUse" gradientTransform="matrix(0,159.42523,-159.42523,0,1103.5345,1816.9865)"/><linearGradient id="w" x2="1" xlink:href="#d" gradientUnits="userSpaceOnUse" gradientTransform="matrix(0,169.52761,-169.52761,0,1090.9681,1817.8244)"/><linearGradient id="A" x2="1" xlink:href="#e" gradientUnits="userSpaceOnUse" gradientTransform="matrix(0,-121.86516,121.86516,0,987.06215,1952.8131)"/><linearGradient id="C" x2="1" xlink:href="#f" gradientUnits="userSpaceOnUse" gradientTransform="matrix(0,-100.1002,100.1002,0,1001.1021,1959.286)"/><linearGradient id="D" x2="1" xlink:href="#g" gradientUnits="userSpaceOnUse" gradientTransform="matrix(-19.137985,-108.53691,108.53691,-19.137985,1004.9376,1952.8918)"/><linearGradient id="E" x2="1" xlink:href="#h" gradientUnits="userSpaceOnUse" gradientTransform="matrix(0,-56.720619,56.720619,0,1182.5102,1891.5108)"/><linearGradient id="G" x2="1" xlink:href="#i" gradientUnits="userSpaceOnUse" gradientTransform="matrix(0,123.74243,-123.74243,0,1188.5246,1834.1372)"/><linearGradient id="I" x2="1" xlink:href="#j" gradientUnits="userSpaceOnUse" gradientTransform="matrix(4.4594269,2.0216064,2.0216064,-4.4594269,2002.999,84.154297)"/><linearGradient id="H" x2="1" xlink:href="#k" gradientUnits="userSpaceOnUse" gradientTransform="matrix(5.646286,-2.3419189,-2.3419189,-5.646286,1999.7344,86.96582)"/><linearGradient id="B" x2="1" xlink:href="#l" gradientUnits="userSpaceOnUse" gradientTransform="matrix(0,-118.45958,118.45958,0,994.73283,1953.242)"/><linearGradient id="z" x1="937.66064" x2="959.67438" y1="2075.9995" y2="2075.9995" xlink:href="#m" gradientUnits="userSpaceOnUse" gradientTransform="matrix(4.0385167,0,0,4.0385167,-2848.934,-6485.6534)"/><linearGradient id="x" x1="958.72162" x2="964.65662" y1="2068.9573" y2="2068.9573" xlink:href="#n" gradientUnits="userSpaceOnUse" gradientTransform="matrix(4.0385167,0,0,4.0385167,-2848.934,-6485.6534)"/><linearGradient id="u" x2="1" xlink:href="#o" gradientUnits="userSpaceOnUse" gradientTransform="matrix(0,-122.17805,122.17805,0,1111.5651,1952.8773)"/><linearGradient id="J" x2="1" xlink:href="#p" gradientUnits="userSpaceOnUse" gradientTransform="matrix(0,121.03249,-121.03249,0,1171.7728,1840.9797)"/><linearGradient id="F" x2="1" xlink:href="#q" gradientUnits="userSpaceOnUse" gradientTransform="matrix(-23.062669,130.7947,-130.7947,-23.062669,1209.1707,1829.5475)"/><linearGradient id="y" x2="1" xlink:href="#r" gradientUnits="userSpaceOnUse" gradientTransform="matrix(0,-119.01834,119.01834,0,1202.89,1949.8157)"/></defs><path d="M260.89086 113.1998h-2.7967v8.6929h-1.1409v-8.6929h-2.8067v-1.0346h6.7443v1.0346zm11.4516 8.6913h-1.1356v-6.5323c0-.5149.04-1.1457.093-1.888-.1172.4443-.2141.7524-.3029.9491l-3.3116 7.4712h-.5553l-3.3217-7.4155c-.097-.206-.1938-.5403-.2988-1.0048h-.04c.04.3918.053 1.025.053 1.9034v6.5169h-1.0904v-9.7275h1.5043l2.9833 6.7895c.2261.5101.3675.9038.4394 1.1663h.044c.1979-.5351.3594-.9341.4697-1.1966l3.0438-6.7592h1.4337v9.7275zm-8.854 36.1157c0-.5299-.1454-.9087-.4443-1.1563-.3311-.2665-.9038-.4086-1.701-.4086h-1.1461v3.15h1.3832c1.2773 0 1.9082-.5299 1.9082-1.5851m1.787 6.5678h-1.575l-1.0044-2.2163c-.5101-1.1106-1.0553-1.6659-1.6509-1.6659h-.8481v3.8822h-1.2976v-9.2385h2.6c1.1562 0 2.0241.2504 2.6202.7726.5048.4491.7572 1.0249.7572 1.7418 0 .6361-.206 1.1712-.6211 1.615-.4039.4495-.9846.7524-1.7265.9091v.04c.5149.1212 1.0298.6866 1.5294 1.7063l1.2168 2.4587zm2.8774-4.5284c0-1.8173-.6207-3.3519-1.8577-4.5687-1.2418-1.2164-2.7563-1.8271-4.5433-1.8271-1.8428 0-3.377.6107-4.5938 1.8376-1.2168 1.2317-1.8222 2.7558-1.8222 4.5582 0 1.8428.6308 3.3823 1.8828 4.6092 1.237 1.2265 2.7514 1.8323 4.5332 1.8323 1.7717 0 3.2861-.6107 4.5332-1.8529 1.2471-1.2217 1.8678-2.7559 1.8678-4.5886m.8732-.04c0 2.0399-.7015 3.751-2.1098 5.129-1.4086 1.3884-3.1351 2.0798-5.1999 2.0798-2.0795 0-3.8059-.6813-5.1794-2.0193-1.3727-1.3577-2.0544-3.064-2.0544-5.1337 0-2.0245.6966-3.7256 2.0899-5.1237 1.3933-1.3933 3.1298-2.0899 5.2048-2.0899 2.0342 0 3.7405.6663 5.1237 1.9938 1.4183 1.363 2.1251 3.0794 2.1251 5.164m-197.4458 25.7605h-4.4775v-25.6244c0-2.0241.1333-4.4876.3716-7.3953h-.101c-.4192 1.701-.8029 2.9328-1.1409 3.6953l-13.0141 29.3244h-2.1808L37.998 156.6543c-.36751-.813-.75197-2.1206-1.14088-3.9073h-.0969c.13731 1.5294.21405 4.0082.21405 7.4458v25.5739H32.6579V147.608h5.90633l11.70685 26.6086c.88323 2.0043 1.45387 3.5288 1.73131 4.5687h.18578c.76206-2.085 1.36784-3.65 1.82742-4.6798l11.95887-26.4975h5.6034v38.1587zm13.7734-.0012h-4.3511v-27.2499h4.3511v27.2499zm.7524-37.0182c0 .8028-.2827 1.474-.8433 2.0245-.55.55-1.2313.8279-2.0293.8279-.7774 0-1.4539-.2666-2.0088-.7976-.5553-.5351-.8283-1.2168-.8283-2.0548 0-.7875.2746-1.4587.8283-2.0039.5549-.5452 1.2314-.8077 2.0088-.8077.7976 0 1.4793.2625 2.0293.8077.5606.5452.8433 1.2164.8433 2.0039m26.4413 35.7574c-2.0899 1.2822-4.5837 1.9183-7.4664 1.9183-3.9068 0-7.052-1.2972-9.4549-3.8871-2.3323-2.514-3.5083-5.7597-3.5083-9.7377 0-4.4629 1.277-8.077 3.8515-10.8232 2.5596-2.7514 6.0025-4.1245 10.3338-4.1245 2.3674 0 4.4674.4644 6.3049 1.3832v4.4779c-2.0342-1.4288-4.1847-2.1356-6.4919-2.1356-2.7765 0-5.0328.9693-6.7847 2.9029-1.8226 1.9789-2.7462 4.6241-2.7462 7.9256 0 3.1702.8432 5.679 2.5192 7.5318 1.6809 1.8424 3.9174 2.7664 6.7391 2.7664 2.3827 0 4.614-.7827 6.7039-2.3423v4.1443zm20.8137-21.5681c-.7673-.5904-1.8726-.8784-3.3317-.8784-1.7717 0-3.2611.7928-4.4674 2.3928-1.3683 1.7871-2.0496 4.2607-2.0496 7.4208v13.8925h-4.3616v-27.2499h4.3616v5.6188h.105c.6413-1.989 1.6308-3.5188 2.9534-4.6039 1.2366-.9894 2.6351-1.4894 4.1746-1.4894 1.1611 0 2.0245.1252 2.6149.3715v4.5232zm24.3091 9.2534c0-3.488-.7875-6.1534-2.3625-7.9809-1.5294-1.7567-3.665-2.6351-6.416-2.6351-2.7111 0-4.8866.8885-6.5125 2.6654-1.7213 1.8981-2.5794 4.5785-2.5794 8.0569 0 3.2611.8178 5.8203 2.4687 7.6477 1.6404 1.8375 3.8515 2.7563 6.6232 2.7563 2.8673 0 5.0631-.9337 6.5674-2.7914 1.4741-1.8174 2.2111-4.3871 2.2111-7.7189m4.4727-.1534c0 4.3414-1.2265 7.8299-3.6699 10.4448-2.4533 2.625-5.7548 3.9376-9.9044 3.9376-4.089 0-7.3453-1.3126-9.7328-3.9376-2.3375-2.5293-3.5135-5.8712-3.5135-10.0256 0-4.7404 1.3274-8.3953 3.9928-10.99 2.4635-2.4078 5.7598-3.6194 9.8896-3.6194 4.0635 0 7.239 1.2669 9.5256 3.7761 2.2668 2.524 3.4126 5.9972 3.4126 10.4141m21.6306 6.4386c0 2.2313-.8327 4.0789-2.5038 5.553-1.8222 1.5952-4.3261 2.3928-7.4761 2.3928-2.5798 0-4.8414-.54-6.7597-1.6405v-4.6899c2.1356 1.7366 4.4928 2.6101 7.0827 2.6101 3.453 0 5.1843-1.2721 5.1843-3.8063 0-1.0654-.3796-1.9486-1.1457-2.6303-.7674-.6966-2.2568-1.5294-4.4727-2.5039-2.2818-.9995-3.9073-2.0241-4.8664-3.0894-1.151-1.2621-1.7317-2.9025-1.7317-4.9218 0-2.2616.9038-4.1447 2.6908-5.6438 1.7919-1.5044 4.0939-2.2567 6.9208-2.2567 2.1659 0 4.1044.424 5.8256 1.2773v4.3919c-1.7971-1.2975-3.8515-1.9437-6.1838-1.9437-1.4437 0-2.6048.3594-3.4682 1.0601-.8732.7168-1.3126 1.6308-1.3126 2.7462 0 1.2067.3675 2.1457 1.0957 2.8169.6461.6211 2.0192 1.3783 4.089 2.2615 2.327.9745 4.0082 1.9842 5.0328 3.0188 1.3278 1.3077 1.999 2.9736 1.999 4.9977m26.6559-6.2852c0-3.488-.7875-6.1534-2.3674-7.9809-1.5245-1.7567-3.665-2.6351-6.4111-2.6351-2.7111 0-4.8867.8885-6.5223 2.6654-1.7163 1.8981-2.5697 4.5785-2.5697 8.0569 0 3.2611.8178 5.8203 2.4534 7.6477 1.6611 1.8375 3.8722 2.7563 6.6386 2.7563 2.8721 0 5.063-.9337 6.5674-2.7914 1.474-1.8174 2.2111-4.3871 2.2111-7.7189m4.4827-.1534c0 4.3414-1.2366 7.8299-3.6851 10.4448-2.4433 2.625-5.7448 3.9376-9.8944 3.9376-4.0938 0-7.3501-1.3126-9.7377-3.9376-2.3374-2.5293-3.5135-5.8712-3.5135-10.0256 0-4.7404 1.3376-8.3953 3.9881-10.99 2.4635-2.4078 5.765-3.6194 9.8992-3.6194 4.0639 0 7.2342 1.2669 9.5159 3.7761 2.2717 2.524 3.4275 5.9972 3.4275 10.4141m19.2197-22.7801c-.8582-.4745-1.812-.7168-2.8976-.7168-3.0543 0-4.5688 1.9231-4.5688 5.7751v4.2h6.3861v3.6953h-6.3861v23.5546h-4.3664v-23.5546h-4.6342v-3.6953h4.6342v-4.4169c0-2.999.9187-5.3514 2.7866-7.0476 1.6004-1.4741 3.5587-2.2059 5.8861-2.2059 1.3481 0 2.3981.1616 3.1601.4746v3.9375zm17.215 36.2344c-1.0298.5908-2.4029.8836-4.0991.8836-4.7553 0-7.1328-2.6807-7.1328-8.0419v-16.1185h-4.6746v-3.7005h4.6746v-6.6482c1.3933-.4394 2.8419-.9188 4.3717-1.4135v8.0617h6.8602v3.7005h-6.8602v15.3767c0 1.8274.2988 3.1347.9236 3.8919.6312.7826 1.661 1.1663 3.1149 1.1663 1.0852 0 2.0241-.2908 2.8217-.8784v3.7203zM15.55839 292.1182c0 2.1352-.76207 3.9828-2.30196 5.5429-1.53464 1.5548-3.3976 2.3375-5.58325 2.3375-2.13557 0-3.9529-.7827-5.4419-2.3375C.74188 296.101 0 294.2534 0 292.1182c0-2.1957.74188-4.0486 2.23128-5.5832 1.489-1.5399 3.30633-2.302 5.4419-2.302 2.18565 0 4.04861.7726 5.58325 2.3323 1.53989 1.5601 2.30196 3.4125 2.30196 5.5529m97.65977 6.2755h-14.2256l-51.63732-79.7454c-1.20671-1.9183-2.24662-4.0033-3.12985-6.2799h-.42445c.36751 2.1352.5557 6.7189.5557 13.7411v72.2842H32.6296v-100.049h15.22036l50.0926 78.4886c1.9942 3.1145 3.3568 5.3457 4.0486 6.6886h.2786c-.4644-2.8775-.7063-7.7843-.7063-14.7103v-70.4669h11.656v100.049zm75.1795 0h-53.0258v-100.049h50.7238v10.6011h-39.0068v33.2822h36.1447v10.6064h-36.1447v34.9533h41.3088v10.606zm80.4305-89.4467h-28.8195v89.4483h-11.7218V208.947h-28.8754v-10.6059h69.4167v10.6059z"/><path fill="url(#s)" d="M1046.8484 1860.0189c11.3128 34.5947 15.5987 96.3085 48.6792 96.3085 2.519 0 5.0633-.2464 7.6177-.7322-30.0718-7.0117-33.6358-68.0542-51.9858-99.6657-1.4388 1.3076-2.8674 2.6706-4.3111 4.0894" transform="translate(-937.60684,-1834.4815)"/><path fill="url(#t)" d="M1051.1595 1855.9295c18.35 31.6115 21.914 92.654 51.9858 99.6657 2.3625-.4341 4.7301-1.0904 7.1027-1.9183-26.9924-13.2261-34.4536-72.5015-55.2923-101.0388-1.2621 1.0504-2.5291 2.1509-3.7962 3.2914" transform="translate(-937.60684,-1834.4815)"/><path fill="#14559a" d="M139.99196 2.6483c-2.514 0-5.0635.2463-7.6227.7322-6.6939 1.262-13.4935 4.1443-20.3489 8.5059 1.8727 1.8476 3.6545 3.9626 5.3305 6.2698 6.9716-5.7852 13.8977-10.0608 20.7987-12.6305 2.5895-.9591 5.1693-1.6808 7.7588-2.1553-1.8678-.475-3.8366-.7221-5.9164-.7221"/><path fill="url(#u)" d="M1131.319 1941.4854c2.7613-2.1957 5.5277-4.6241 8.2991-7.2741-11.4946-34.4336-15.6088-97.0306-48.9216-97.0306-2.3827 0-4.7856.2221-7.1835.6663 30.3444 7.5472 34.2315 73.5668 47.806 103.6384" transform="translate(-937.60684,-1834.4815)"/><path fill="#3092c4" d="M145.90716 3.3679c-1.8678-.4745-3.8365-.7216-5.9164-.7216l13.1.048c-2.3828 0-4.7857.2221-7.1836.6716"/><path fill="#1969bc" d="M193.13036 114.3189c-1.3024-1.2418-2.539-2.6048-3.7558-4.0587-5.6035 3.9678-11.1867 6.9765-16.7344 8.9352 1.9736.9644 4.0433 1.6813 6.2395 2.1255 1.701.3473 3.463.525 5.3155.525 6.2245 0 11.1463-.737 15.3362-2.7462-2.3068-1.2471-4.4221-2.8625-6.401-4.7808"/><path fill="url(#v)" d="M1075.754 1840.0129c27.1793 14.2155 29.5418 78.5895 51.2286 104.7288 1.4539-1.0246 2.8926-2.1101 4.3313-3.2563-13.5744-30.0716-17.4565-96.0965-47.7958-103.6384-2.5897.4846-5.1744 1.2019-7.7641 2.1659" transform="translate(-937.60684,-1834.4815)"/><path fill="url(#w)" d="M1054.9557 1852.6381c20.8387 28.5373 28.2999 87.8127 55.2923 101.0388 5.5479-1.9587 11.1312-4.9674 16.7346-8.9352-21.6868-26.1393-24.0493-90.5133-51.2286-104.7288-6.9008 2.5644-13.8268 6.84-20.7983 12.6252" transform="translate(-937.60684,-1834.4815)"/><path fill="url(#x)" d="M1033.5157 1859.1857c-3.2662 7.3857-6.603 17.093-10.6365 29.7639 8.0215-11.303 16.0178-21.0407 23.9686-28.9307-1.0954-3.3673-2.2716-6.4718-3.5387-9.2385-3.251 2.4889-6.5273 5.2908-9.7934 8.4053" transform="translate(-937.60684,-1834.4815)"/><path fill="#2b74b1" d="M108.59856 14.1694c-.9592.6865-1.9232 1.3884-2.8924 2.1303 1.2669 2.7664 2.438 5.8712 3.5337 9.2381 1.4434-1.4135 2.877-2.7814 4.3107-4.089-1.5395-2.6453-3.1751-5.0886-4.952-7.2794"/><path fill="#125a9e" d="M112.02036 11.8864c-1.1409.7221-2.2765 1.4841-3.4226 2.2817 1.7769 2.1909 3.4125 4.6342 4.9573 7.2847 1.2672-1.1461 2.5341-2.2515 3.7962-3.2966-1.676-2.3068-3.4578-4.4222-5.3309-6.2698"/><path fill="url(#y)" d="M1235.0131 1834.4954c-15.3718 59.2802-47.478 106.8943-74.3947 118.8988h-.051c-.4896.2221-.9743.4241-1.4538.6207-.066.04-.126.045-.1769.069-.1414.057-.2726.101-.414.1575-.066.04-.126.053-.1865.077-.227.081-.4493.1495-.6714.2383-.096.04-.1866.065-.2779.097-.101.04-.2173.077-.3332.1091-.1009.04-.2067.069-.3231.113-.096.04-.197.057-.2875.097-.1971.057-.3784.105-.5755.1736-.081 0-.1563.044-.2423.065-.1212.04-.2577.069-.3889.105-.091.04-.1664.053-.2625.073-.1365.04-.288.077-.4241.1091-.1817.04-.3432.077-.5149.1131 1.2166.4494 2.4837.6764 3.8518.6764 25.5234 0 51.2584-45.741 93.8397-121.8065h-16.7194z" transform="translate(-937.60684,-1834.4815)"/><path fill="url(#z)" d="M1017.3364 1839.5355c.016 0 .036-.04.046-.04.02 0 .051 0 .061-.04h.032c.1413-.048.2726-.105.4139-.1575.036 0 .055 0 .081-.04.036 0 .071-.04.1062-.045.1515-.048.3029-.105.4443-.1575h.024c.3384-.1009.6512-.2261.9793-.3432.046 0 .091-.04.1462-.04.1365-.044.2779-.093.419-.1252.066-.04.1313-.04.1918-.061.1462-.044.288-.093.4241-.1252.061 0 .1163-.04.1615-.044.4695-.1292.9339-.2504 1.4034-.3635.066 0 .1212-.04.1918-.044.1361-.04.2626-.061.4089-.081.061-.04.1313-.04.202-.061.1361-.04.2673-.044.4139-.077h.096c.2827-.057.5705-.105.8532-.1575h.1716c.1361-.04.2573-.044.3938-.069.075 0 .1514-.04.2221-.04.126 0 .2524-.04.3784-.057.066 0 .1312 0 .2072-.04.2976-.04.6057-.056.9187-.081-.8834-.085-1.7921-.1414-2.7159-.1414-28.74412 0-68.34682 53.3335-86.18697 122.4022h3.43779c5.70945-10.1819 10.83837-19.8138 15.5281-28.8552 12.49416-48.9214 37.94186-82.2848 60.54748-91.1239" transform="translate(-937.60684,-1834.4815)"/><path fill="#0d82ca" d="M95.90916 24.7042c3.2663-3.1145 6.5424-5.9164 9.7934-8.4049-.7419-1.6255-1.5092-3.1299-2.3323-4.5082-2.6299 3.1904-5.0328 7.4006-7.4611 12.9131"/><path fill="#0d82ca" d="M98.27046 5.4583c1.8779 1.575 3.5587 3.7408 5.0986 6.3356.4846-.5957.9745-1.1461 1.4842-1.661-2.1352-1.9939-4.4424-3.6295-6.9463-4.8612.101.056.2019.101.3069.1454 0 0 .04.04.057.04"/><path fill="url(#A)" d="M956.78943 1930.6574c26.20997-50.5069 38.62841-82.4718 60.54747-91.1243-22.60056 8.8447-48.05331 42.2077-60.54747 91.1243" transform="translate(-937.60684,-1834.4815)"/><path fill="#127bca" d="M104.85156 10.1316c-.5096.5202-.9942 1.0654-1.4841 1.6611.823 1.3779 1.59 2.8774 2.3375 4.5078.9692-.7419 1.9332-1.4438 2.8924-2.1303-1.1861-1.464-2.4381-2.8218-3.7458-4.0386"/><path fill="url(#B)" d="M968.68791 1959.2856c-.16154.04-.32308.04-.47453.057h-.0909c-.1365 0-.27785.04-.40385.04h-.0658c-.32793.04-.65121.04-.9642.065h-.10096c26.52801-.7423 38.65363-14.0242 44.67103-33.2879 4.5736-14.6041 8.3295-26.9066 11.6209-37.2299-11.111 15.6392-22.2725 34.2818-33.4945 55.1661-5.41162 10.066-13.64009 14.2709-20.6974 15.1699" transform="translate(-937.60684,-1834.4815)"/><path fill="url(#C)" d="M968.68791 1959.2755c7.05731-.899 15.28579-5.099 20.6974-15.1699 11.22199-20.8791 22.38849-39.5269 33.48939-55.1661 4.0385-12.6761 7.3703-22.3782 10.6415-29.7639-22.126 21.0609-44.33787 56.0801-64.82829 100.0898" transform="translate(-937.60684,-1834.4815)"/><path fill="#05a1e6" d="M19.18134 96.1771c-4.68953 9.0414-9.81844 18.6733-15.5281 28.8552h10.00058c1.32262-10.1117 3.20053-19.7536 5.52752-28.8504"/><path fill="url(#D)" d="M1025.8077 1837.3527c-.081 0-.1414.04-.212.04-.1212.04-.2476.04-.3736.053-.075 0-.1462 0-.2221.04-.1365.04-.2625.044-.3938.069-.061 0-.1211 0-.1716.04-.288.048-.5705.101-.8532.1494h-.096c-.1462.04-.2778.061-.4139.081-.071.04-.1414.04-.2072.056-.1361.04-.2726.057-.4038.081-.071.04-.126.04-.1919.044-.4694.1131-.9339.2343-1.4034.3635-.05 0-.1009.04-.1615.048-.1413.04-.2778.081-.424.1252-.061.04-.1313.04-.1919.056-.1413.04-.2827.081-.419.1252-.055 0-.1009.04-.1514.04-.3231.1211-.6411.2423-.9743.3433-.1413.044-.2928.1009-.4442.1534-.061.04-.1163.049-.1866.077-.1414.044-.2827.101-.414.1535-.05.04-.1009.044-.1361.065-21.91901 8.6525-34.33745 40.6174-60.54742 91.1243-2.3272 9.0968-4.21016 18.7387-5.52772 28.85h1.40338c3.9527 0 5.06834-.04 9.61672-.04h4.40703c.31298-.04.63607-.04.9642-.065h.0606c.1365 0 .2726-.04.40385-.04h.0957c.14619 0 .31298-.04.47452-.057 20.49043-44.0097 42.70224-79.0289 64.82824-100.0898 2.4332-5.5125 4.8311-9.7227 7.4562-12.9079-1.5347-2.5947-3.2157-4.7654-5.0936-6.3408 0 0-.051 0-.055-.04-.1062-.044-.2067-.097-.3129-.1494-.1063-.057-.1971-.101-.3078-.1575-.096-.04-.2071-.093-.3029-.1454-.1312-.04-.2374-.097-.3533-.1495-.096-.04-.1818-.081-.2779-.1211-.1971-.077-.3937-.1575-.5805-.2423-.086-.04-.1664-.061-.2476-.093-.1361-.049-.2928-.1131-.4341-.1737-.071-.04-.1515-.048-.2322-.077-.2068-.069-.4089-.1413-.6008-.206h-.05c-.2323-.077-.4594-.1332-.6967-.1979-.055-.04-.101-.04-.1563-.048-.2072-.057-.3889-.1131-.5856-.1656-.05 0-.096-.04-.1361-.04-.4745-.1252-.9642-.2261-1.4589-.319-.051 0-.1009-.04-.1514-.04-.212-.04-.419-.077-.631-.101-.051-.04-.081-.04-.126-.04-.2524-.04-.4998-.069-.7472-.097h-.1312c-.2019-.04-.3885-.044-.5755-.065-.3182.04-.6209.057-.9188.085" transform="translate(-937.60684,-1834.4815)"/><path fill="url(#E)" d="M1174.9703 1867.3132c-5.0431 16.1541-9.1271 29.4812-12.6809 40.4458 13.8369-19.0416 27.4669-42.9953 40.4459-70.6385-15.1396 4.7549-23.2166 15.6391-27.765 30.1927" transform="translate(-937.60684,-1834.4815)"/><path fill="url(#F)" d="M1162.7285 1952.3846c-.7067.3594-1.4134.7015-2.1101 1.0096 26.9167-12.0045 59.0229-59.6186 74.3947-118.8988h-3.1149c-35.3168 63.0865-46.6751 105.3193-69.1697 117.8892" transform="translate(-937.60684,-1834.4815)"/><path fill="#079ae1" d="M207.54546 112.6029c5.8558-7.1481 10.6261-19.2988 17.1386-39.325-7.512 10.3184-15.0737 19.1882-22.6411 26.422 0 .04 0 .04-.04.065 1.651 4.9472 3.463 9.3136 5.5279 12.8372"/><path fill="#1969bc" d="M207.54546 112.6029c-1.9942 2.4333-4.104 4.2861-6.4516 5.6592-.5149.2989-1.0346.5804-1.5649.838 2.4789 1.3376 5.1843 2.2313 8.2131 2.5895.4439.044.8833.085 1.3429.1171h.081c.206 0 .4241 0 .6462.04h2.1895c.081 0 .1655 0 .2463-.04.1575 0 .3231 0 .4846-.04h.2387c.1656 0 .3473-.04.525-.057h.04c.053 0 .109-.04.1615-.04.1858-.04.3797-.057.5606-.085h.1656c.2059-.04.4188-.065.6308-.105h.101c.4241-.081.838-.1615 1.2568-.2665-3.4731-1.2722-6.3808-4.2708-8.8847-8.5415"/><path fill="#1e5cb3" d="M157.92136 121.8467c2.5192 0 5.0635-.2463 7.6178-.737 2.3626-.4289 4.73-1.0856 7.1026-1.9135 1.974.9644 4.0437 1.6813 6.2346 2.1255 1.7011.3473 3.4679.525 5.3208.525h-26.2758z"/><path fill="#1e5cb3" d="M184.19756 121.8467c6.2193 0 11.1463-.737 15.3314-2.7462 2.4785 1.3376 5.1843 2.2313 8.2131 2.5899.4443.044.8837.085 1.3429.1171h.081c.206 0 .4241 0 .6462.04h.7545-26.3869z"/><path fill="#1d60b5" d="M210.58236 121.8467h1.439c.085 0 .1655 0 .2463-.04.1575 0 .3231 0 .4899-.04h.2388c.1655 0 .3473-.04.5201-.056h.044c.053 0 .105-.04.1575-.04.1858-.04.3797-.056.5602-.085.061 0 .109 0 .1736-.04.206-.04.4192-.061.6313-.1009h.101c.4241-.081.838-.1616 1.2568-.2666 1.2164.4491 2.4837.6765 3.8515.6765l-9.7025.04z"/><path fill="#175fab" d="M202.01916 99.7657v-.04c-2.7713 2.6501-5.5377 5.0785-8.2992 7.2742-1.4438 1.1461-2.8823 2.2313-4.3361 3.2563 1.2164 1.4538 2.4534 2.8168 3.7558 4.0587 1.9789 1.9179 4.0938 3.5337 6.401 4.7804.525-.2585 1.05-.5404 1.5597-.838 2.3524-1.3731 4.4626-3.2256 6.4568-5.6588-2.0649-3.5236-3.877-7.8905-5.5279-12.8376"/><path fill="url(#G)" d="M1222.0342 1834.4954h-15.6771c-.8481.04-1.6707.069-2.4837.1212-.3836.8231-.7774 1.6461-1.1562 2.474-12.9786 27.6432-26.6086 51.5969-40.4455 70.6385-6.5071 20.0258-11.2826 32.1769-17.1385 39.3251 2.5039 4.2707 5.4167 7.2741 8.8797 8.5463.101-.04.1817-.04.2726-.061h.056c.061 0 .126-.04.1919-.04.1413-.04.2928-.065.4341-.109.091-.04.1664-.044.2577-.073.1312-.04.2673-.069.3885-.101.081-.04.1615-.053.2423-.069.2019-.065.3836-.1131.5755-.1737.091-.04.187-.073.2879-.097.1111-.04.2221-.069.3231-.1171.1163-.04.2322-.061.3332-.105.091-.04.1866-.065.2726-.101.2269-.081.4493-.1494.6764-.2383.061 0 .1212-.056.187-.069.1361-.057.2775-.101.414-.1616.05-.04.111-.044.1764-.065.4746-.1979.9642-.3998 1.4539-.6207h.051c.6966-.3069 1.4034-.6514 2.1051-1.0096 22.4996-12.5699 33.8581-54.8027 69.1749-117.8892h-9.8641z" transform="translate(-937.60684,-1834.4815)"/><path fill="#7dcbec" d="M89.12066 2.786c.056 0 .1062 0 .1615.04.1361 0 .2726 0 .4089.044h.1365c.2472.04.4947.061.7471.097.046 0 .086 0 .126.04.2068.04.419.073.631.105.046 0 .1063.04.1567.04.4847.097.9794.1979 1.4539.3231.045 0 .091.04.1313.04.2019.048.3836.109.5855.1655.061 0 .1058.04.1616.049.2374.061.4594.1212.6916.1979.01 0 .024 0 .051.04.1966.06.3986.1373.6057.2059.081.04.1563.057.2322.077.1414.061.2981.1211.4342.1777.081 0 .1615.056.2471.085.1866.085.3837.1615.5755.2423.101.04.1866.085.2827.1211.1111.057.227.1091.3482.1495.1009.048.212.1009.3077.1453.1062.057.2068.101.3081.1575 2.5039 1.2318 4.8109 2.8726 6.9463 4.8616.7875-.8279 1.6103-1.5702 2.4635-2.2365-4.6696-3.3116-9.96-5.1996-16.0632-5.1996-.7068 0-1.4135.04-2.1303.093"/><path fill="#5ec5ed" d="M104.85166 10.1316c1.3075 1.2164 2.5594 2.5746 3.7457 4.0386 1.1459-.7976 2.2818-1.565 3.4227-2.2818-1.4943-1.4943-3.0693-2.8371-4.71-3.9933-.8531.6615-1.6709 1.4086-2.4584 2.2365"/><path fill="url(#H)" d="M1998.949 85.842c.142.012.282.017.422.017 1.209 0 2.257-.374 3.182-1.029.976.77 2.156 1.039 3.795 1.039h-7.937c.183 0 .362-.011.538-.027" transform="translate(-937.60684,-1834.4815) matrix(5.0481458,0,0,-5.0481458,-9064.2597,2270.6096)"/><path fill="url(#I)" d="M2006.348 85.869c-1.639 0-2.819-.269-3.795-1.039.324-.229.636-.495.932-.791 1.359.864 2.705 1.436 4.032 1.686.506.095 1.011.144 1.509.144h-2.678z" transform="translate(-937.60684,-1834.4815) matrix(5.0481458,0,0,-5.0481458,-9064.2597,2270.6096)"/><path fill="url(#J)" d="M1162.2894 1907.7691c3.5589-10.9747 7.6327-24.2965 12.6859-40.4559 4.5535-14.5588 12.6154-25.4426 27.7547-30.1927.3999-.813.7775-1.651 1.1664-2.474-24.6806 1.4793-36.2156 14.0338-42.021 32.6264-10.1518 32.4595-16.3005 53.5002-22.2219 66.9081 7.5621-7.229 15.1242-16.1036 22.6359-26.4119" transform="translate(-937.60684,-1834.4815)"/></svg>