<?xml version="1.0" encoding="UTF-8" standalone="no"?><!DOCTYPE svg PUBLIC "-//W3C//DTD SVG 1.1//EN" "http://www.w3.org/Graphics/SVG/1.1/DTD/svg11.dtd"><svg width="100%" height="100%" viewBox="0 0 160 63" version="1.1" xmlns="http://www.w3.org/2000/svg" xmlns:xlink="http://www.w3.org/1999/xlink" xml:space="preserve" xmlns:serif="http://www.serif.com/" style="fill-rule:evenodd;clip-rule:evenodd;stroke-linejoin:round;stroke-miterlimit:1.41421;"><g id="pm-logo"><path d="M6.225,43.911l-6.141,0l0,14.25l1.866,0l0,-5.72l4.275,0c2.75,0 4.636,-1.565 4.636,-4.275c0,-2.709 -1.886,-4.255 -4.636,-4.255Zm-0.281,1.546c1.867,0 3.071,0.923 3.071,2.709c0,1.806 -1.204,2.73 -3.071,2.73l-3.994,0l0,-5.439l3.994,0Z" style="fill:#5c626f;fill-rule:nonzero;"/><path d="M16.943,48.186c-1.164,0 -2.007,0.642 -2.449,1.606l0,-1.505l-1.626,0l0,9.874l1.726,0l0,-5.299c0,-2.007 0.984,-3.151 2.308,-3.151c0.382,0 0.783,0.061 1.285,0.201l0.321,-1.445c-0.482,-0.16 -0.983,-0.281 -1.565,-0.281Z" style="fill:#5c626f;fill-rule:nonzero;"/><path d="M23.786,48.006c-2.87,0 -4.877,2.127 -4.877,5.218c0,3.09 2.007,5.218 4.877,5.218c2.89,0 4.897,-2.128 4.897,-5.218c0,-3.091 -2.007,-5.218 -4.897,-5.218Zm0,1.445c1.907,0 3.131,1.545 3.131,3.773c0,2.227 -1.224,3.773 -3.131,3.773c-1.906,0 -3.11,-1.546 -3.11,-3.773c0,-2.228 1.204,-3.773 3.11,-3.773Z" style="fill:#5c626f;fill-rule:nonzero;"/><path d="M35.768,48.026c-1.565,0 -2.689,0.662 -3.372,1.806l0,-1.545l-1.625,0l0,13.486l1.726,0l0,-4.917c0.682,1.004 1.766,1.566 3.271,1.566c2.529,0 4.355,-2.067 4.355,-5.218c0,-3.111 -1.826,-5.178 -4.355,-5.178Zm-0.261,8.911c-1.766,0 -3.071,-1.365 -3.071,-3.733c0,-2.328 1.285,-3.713 3.071,-3.713c1.746,0 2.85,1.505 2.85,3.713c0,2.247 -1.144,3.733 -2.85,3.733Z" style="fill:#5c626f;fill-rule:nonzero;"/><path d="M49.937,55.351c-1.244,1.184 -1.987,1.646 -3.271,1.646c-2.148,0 -3.091,-1.646 -3.191,-3.472l7.426,0c0.02,-0.181 0.04,-0.562 0.04,-0.763c0,-2.91 -1.626,-4.756 -4.456,-4.756c-2.89,0 -4.716,2.187 -4.716,5.278c0,3.091 1.866,5.158 4.877,5.158c1.625,0 2.87,-0.502 4.315,-2.047l-1.024,-1.044Zm-3.472,-5.961c1.706,0 2.69,1.144 2.77,2.85l-5.7,0c0.261,-1.826 1.325,-2.85 2.93,-2.85Z" style="fill:#5c626f;fill-rule:nonzero;"/><path d="M57.162,48.186c-1.164,0 -2.007,0.642 -2.448,1.606l0,-1.505l-1.626,0l0,9.874l1.726,0l0,-5.299c0,-2.007 0.984,-3.151 2.308,-3.151c0.382,0 0.783,0.061 1.285,0.201l0.321,-1.445c-0.482,-0.16 -0.984,-0.281 -1.566,-0.281Z" style="fill:#5c626f;fill-rule:nonzero;"/><path d="M65.692,56.636c-0.662,0.18 -1.064,0.24 -1.425,0.24c-0.823,0 -1.164,-0.321 -1.164,-1.204l0,-6.081l2.669,0l0,-1.304l-2.669,0l0,-3.312l-1.726,0l0,3.312l-1.846,0l0,1.304l1.846,0l0,6.282c0,1.565 0.662,2.468 2.549,2.468c0.582,0 1.304,-0.08 2.027,-0.341l-0.261,-1.364Z" style="fill:#5c626f;fill-rule:nonzero;"/><path d="M74.161,48.287l-1.103,3.231c-0.542,1.605 -1.144,3.472 -1.606,4.877c-0.462,-1.385 -1.084,-3.272 -1.626,-4.837l-1.103,-3.271l-1.827,0l3.713,10.416l-0.12,0.361c-0.422,1.244 -0.903,1.565 -1.666,1.565c-0.321,0 -0.703,-0.04 -1.064,-0.12l-0.301,1.325c0.422,0.12 0.984,0.2 1.525,0.2c1.726,0 2.369,-0.802 2.971,-2.508l3.954,-11.239l-1.747,0Z" style="fill:#5c626f;fill-rule:nonzero;"/><path d="M93.469,43.911l-2.208,6.282c-0.723,2.067 -1.385,4.014 -1.887,5.74c-0.501,-1.726 -1.184,-3.693 -1.926,-5.74l-2.228,-6.282l-2.97,0l0,14.25l1.766,0l0,-7.105c0,-1.947 0,-3.893 -0.04,-5.78c0.602,1.826 1.284,3.693 2.007,5.76l2.548,7.125l1.646,0l2.489,-7.125c0.702,-2.027 1.385,-3.934 2.007,-5.78c-0.02,1.887 -0.04,3.833 -0.04,5.78l0,7.125l1.806,0l0,-14.25l-2.97,0Z" style="fill:#5c626f;fill-rule:nonzero;"/><path d="M103.403,48.006c-1.706,0 -3.071,0.662 -4.295,2.107l1.104,0.983c1.164,-1.184 1.987,-1.665 3.251,-1.665c1.365,0 2.308,0.702 2.308,1.946l0,0.502l-2.207,0.401c-2.469,0.442 -4.596,1.124 -4.596,3.432c0,1.967 1.605,2.77 3.532,2.77c1.485,0 2.689,-0.542 3.352,-1.525l0,1.204l1.565,0l0,-6.864c0,-1.927 -1.405,-3.291 -4.014,-3.291Zm-0.722,9.051c-1.265,0 -2.027,-0.502 -2.027,-1.405c0,-1.365 1.384,-1.726 3.311,-2.127l1.806,-0.362l0,1.305c0,1.626 -1.385,2.589 -3.09,2.589Z" style="fill:#5c626f;fill-rule:nonzero;"/><path d="M114.823,48.006c-1.345,0 -2.469,0.521 -3.111,1.565l0,-1.284l-1.626,0l0,9.874l1.726,0l0,-6.121c0,-1.466 1.124,-2.569 2.549,-2.569c1.465,0 2.268,0.843 2.268,2.468l0,6.222l1.726,0l0,-6.764c0,-1.846 -1.124,-3.391 -3.532,-3.391Z" style="fill:#5c626f;fill-rule:nonzero;"/><path d="M125.018,48.006c-1.706,0 -3.07,0.662 -4.295,2.107l1.104,0.983c1.164,-1.184 1.987,-1.665 3.251,-1.665c1.365,0 2.308,0.702 2.308,1.946l0,0.502l-2.207,0.401c-2.469,0.442 -4.596,1.124 -4.596,3.432c0,1.967 1.605,2.77 3.532,2.77c1.485,0 2.689,-0.542 3.352,-1.525l0,1.204l1.565,0l0,-6.864c0,-1.927 -1.405,-3.291 -4.014,-3.291Zm-0.722,9.051c-1.265,0 -2.027,-0.502 -2.027,-1.405c0,-1.365 1.384,-1.726 3.311,-2.127l1.806,-0.362l0,1.305c0,1.626 -1.384,2.589 -3.09,2.589Z" style="fill:#5c626f;fill-rule:nonzero;"/><path d="M138.746,48.287l0,1.445c-0.642,-1.084 -1.706,-1.726 -3.251,-1.726c-2.569,0 -4.335,2.087 -4.335,5.017c0,2.93 1.766,5.017 4.335,5.017c1.465,0 2.508,-0.602 3.151,-1.605l0,1.365c0,2.007 -1.245,2.769 -2.79,2.769c-1.345,0 -2.348,-0.481 -3.593,-1.264l-0.863,1.264c1.365,0.964 2.83,1.465 4.476,1.465c2.709,0 4.475,-1.505 4.475,-4.094l0,-9.653l-1.605,0Zm-2.97,8.288c-1.807,0 -2.85,-1.465 -2.85,-3.552c0,-2.067 1.043,-3.552 2.85,-3.552c1.746,0 2.91,1.485 2.91,3.552c0,2.087 -1.164,3.552 -2.91,3.552Z" style="fill:#5c626f;fill-rule:nonzero;"/><path d="M150.607,55.351c-1.244,1.184 -1.987,1.646 -3.271,1.646c-2.148,0 -3.091,-1.646 -3.191,-3.472l7.425,0c0.021,-0.181 0.041,-0.562 0.041,-0.763c0,-2.91 -1.626,-4.756 -4.456,-4.756c-2.89,0 -4.716,2.187 -4.716,5.278c0,3.091 1.866,5.158 4.877,5.158c1.625,0 2.87,-0.502 4.315,-2.047l-1.024,-1.044Zm-3.472,-5.961c1.706,0 2.689,1.144 2.77,2.85l-5.7,0c0.261,-1.826 1.324,-2.85 2.93,-2.85Z" style="fill:#5c626f;fill-rule:nonzero;"/><path d="M157.832,48.186c-1.164,0 -2.007,0.642 -2.448,1.606l0,-1.505l-1.626,0l0,9.874l1.726,0l0,-5.299c0,-2.007 0.983,-3.151 2.308,-3.151c0.381,0 0.783,0.061 1.285,0.201l0.321,-1.445c-0.482,-0.16 -0.984,-0.281 -1.566,-0.281Z" style="fill:#5c626f;fill-rule:nonzero;"/><g><g><path d="M103.828,29.035c0,2.922 2.372,5.295 5.295,5.295c2.922,0 5.295,-2.373 5.295,-5.295l0,-23.649c0,-2.923 -2.373,-5.296 -5.295,-5.296c-2.923,0 -5.295,2.373 -5.295,5.296l0,23.649Z" style="fill:#917dd3;"/><path d="M88.781,29.035c0,2.922 2.372,5.295 5.295,5.295c2.922,0 5.295,-2.373 5.295,-5.295l0,-11.551c0,-2.923 -2.373,-5.295 -5.295,-5.295c-2.923,0 -5.295,2.372 -5.295,5.295l0,11.551Z" style="fill:#917dd3;"/><path d="M73.733,29.035c0,2.922 2.373,5.295 5.295,5.295c2.923,0 5.295,-2.373 5.295,-5.295l0,-23.649c0,-2.923 -2.372,-5.296 -5.295,-5.296c-2.922,0 -5.295,2.373 -5.295,5.296l0,23.649Z" style="fill:#917dd3;"/></g><g><path d="M58.686,16.937c0,2.922 2.373,5.295 5.295,5.295c2.923,0 5.295,-2.373 5.295,-5.295l0,-11.551c0,-2.923 -2.372,-5.296 -5.295,-5.296c-2.922,0 -5.295,2.373 -5.295,5.296l0,11.551Z" style="fill:#0c0684;"/><path d="M43.639,29.035c0,2.922 2.372,5.295 5.295,5.295c2.922,0 5.295,-2.373 5.295,-5.295l0,-23.649c0,-2.923 -2.373,-5.296 -5.295,-5.296c-2.923,0 -5.295,2.373 -5.295,5.296l0,23.649Z" style="fill:#0c0684;"/></g></g></g></svg>