<?xml version="1.0" encoding="UTF-8" standalone="no"?><!DOCTYPE svg PUBLIC "-//W3C//DTD SVG 1.1//EN" "http://www.w3.org/Graphics/SVG/1.1/DTD/svg11.dtd"><svg width="100%" height="100%" viewBox="0 0 139 63" version="1.1" xmlns="http://www.w3.org/2000/svg" xmlns:xlink="http://www.w3.org/1999/xlink" xml:space="preserve" xmlns:serif="http://www.serif.com/" style="fill-rule:evenodd;clip-rule:evenodd;stroke-linejoin:round;stroke-miterlimit:1.41421;"><g id="rm-logo"><g><path d="M11.678,58.026l-4.068,-6.07c2.107,-0.417 3.547,-1.94 3.547,-4.318c0,-2.796 -2.024,-4.423 -4.798,-4.423l-6.217,0l0,14.811l1.919,0l0,-5.945l3.463,0l3.964,5.945l2.19,0Zm-9.617,-13.204l3.964,0c1.961,0 3.233,0.959 3.233,2.816c0,1.877 -1.272,2.837 -3.212,2.837l-3.985,0l0,-5.653Z" style="fill:#5c626f;fill-rule:nonzero;"/><path d="M20.815,55.106c-1.293,1.231 -2.065,1.711 -3.379,1.711c-2.232,0 -3.213,-1.711 -3.317,-3.609l7.698,0c0.02,-0.188 0.041,-0.585 0.041,-0.793c0,-3.025 -1.669,-4.944 -4.631,-4.944c-3.004,0 -4.902,2.274 -4.902,5.486c0,3.213 1.961,5.361 5.09,5.361c1.669,0 2.962,-0.521 4.464,-2.127l-1.064,-1.085Zm-3.609,-6.196c1.794,0 2.796,1.189 2.879,2.963l-5.924,0c0.271,-1.899 1.376,-2.963 3.045,-2.963Z" style="fill:#5c626f;fill-rule:nonzero;"/><path d="M28.596,47.471c-1.376,0 -2.545,0.542 -3.233,1.606l0,-1.314l-1.69,0l0,10.263l1.794,0l0,-6.362c0,-1.523 1.168,-2.67 2.65,-2.67c1.522,0 2.357,0.876 2.357,2.566l0,6.466l1.794,0l0,-7.03c0,-1.919 -1.168,-3.525 -3.672,-3.525Z" style="fill:#5c626f;fill-rule:nonzero;"/><path d="M39.757,56.441c-0.689,0.188 -1.106,0.25 -1.481,0.25c-0.856,0 -1.21,-0.333 -1.21,-1.251l0,-6.321l2.774,0l0,-1.356l-2.774,0l0,-3.442l-1.794,0l0,3.442l-1.919,0l0,1.356l1.919,0l0,6.529c0,1.627 0.688,2.566 2.649,2.566c0.605,0 1.356,-0.083 2.107,-0.354l-0.271,-1.419Z" style="fill:#5c626f;fill-rule:nonzero;"/><path d="M45.556,47.471c-1.773,0 -3.192,0.688 -4.464,2.19l1.147,1.022c1.21,-1.23 2.065,-1.731 3.38,-1.731c1.418,0 2.399,0.73 2.399,2.023l0,0.522l-2.295,0.417c-2.566,0.459 -4.777,1.168 -4.777,3.567c0,2.045 1.669,2.879 3.671,2.879c1.544,0 2.796,-0.563 3.484,-1.606l0,1.272l1.627,0l0,-7.134c0,-2.003 -1.46,-3.421 -4.172,-3.421Zm-0.751,9.408c-1.314,0 -2.107,-0.521 -2.107,-1.46c0,-1.419 1.44,-1.794 3.442,-2.211l1.878,-0.376l0,1.356c0,1.69 -1.44,2.691 -3.213,2.691Z" style="fill:#5c626f;fill-rule:nonzero;"/><rect x="52.148" y="43.215" width="1.794" height="14.811" style="fill:#5c626f;fill-rule:nonzero;"/><path d="M72.675,43.215l-2.315,6.53c-0.751,2.148 -1.44,4.172 -1.961,5.945c-0.522,-1.794 -1.231,-3.817 -1.982,-5.945l-2.337,-6.53l-3.066,0l0,14.811l1.836,0l0,-7.384c0,-2.024 -0.021,-4.026 -0.063,-6.008c0.647,1.898 1.335,3.838 2.107,5.987l2.649,7.405l1.69,0l2.587,-7.405c0.73,-2.107 1.46,-4.11 2.107,-6.029c-0.042,1.982 -0.063,4.005 -0.063,6.029l0,7.405l1.878,0l0,-14.811l-3.067,0Z" style="fill:#5c626f;fill-rule:nonzero;"/><path d="M82.584,47.471c-1.773,0 -3.192,0.688 -4.464,2.19l1.147,1.022c1.21,-1.23 2.065,-1.731 3.38,-1.731c1.418,0 2.399,0.73 2.399,2.023l0,0.522l-2.295,0.417c-2.566,0.459 -4.777,1.168 -4.777,3.567c0,2.045 1.669,2.879 3.671,2.879c1.544,0 2.796,-0.563 3.484,-1.606l0,1.272l1.627,0l0,-7.134c0,-2.003 -1.46,-3.421 -4.172,-3.421Zm-0.751,9.408c-1.314,0 -2.107,-0.521 -2.107,-1.46c0,-1.419 1.439,-1.794 3.442,-2.211l1.878,-0.376l0,1.356c0,1.69 -1.44,2.691 -3.213,2.691Z" style="fill:#5c626f;fill-rule:nonzero;"/><path d="M94.037,47.471c-1.377,0 -2.545,0.542 -3.234,1.606l0,-1.314l-1.69,0l0,10.263l1.794,0l0,-6.362c0,-1.523 1.169,-2.67 2.65,-2.67c1.523,0 2.357,0.876 2.357,2.566l0,6.466l1.794,0l0,-7.03c0,-1.919 -1.168,-3.525 -3.671,-3.525Z" style="fill:#5c626f;fill-rule:nonzero;"/><path d="M104.217,47.471c-1.774,0 -3.192,0.688 -4.465,2.19l1.148,1.022c1.21,-1.23 2.065,-1.731 3.379,-1.731c1.419,0 2.399,0.73 2.399,2.023l0,0.522l-2.295,0.417c-2.565,0.459 -4.777,1.168 -4.777,3.567c0,2.045 1.669,2.879 3.672,2.879c1.544,0 2.795,-0.563 3.484,-1.606l0,1.272l1.627,0l0,-7.134c0,-2.003 -1.461,-3.421 -4.172,-3.421Zm-0.751,9.408c-1.315,0 -2.107,-0.521 -2.107,-1.46c0,-1.419 1.439,-1.794 3.442,-2.211l1.877,-0.376l0,1.356c0,1.69 -1.439,2.691 -3.212,2.691Z" style="fill:#5c626f;fill-rule:nonzero;"/><path d="M118.068,47.763l0,1.523c-0.667,-1.127 -1.773,-1.815 -3.379,-1.815c-2.67,0 -4.506,2.169 -4.506,5.215c0,3.046 1.836,5.215 4.506,5.215c1.523,0 2.607,-0.626 3.275,-1.648l0,1.398c0,2.086 -1.294,2.879 -2.9,2.879c-1.397,0 -2.441,-0.501 -3.734,-1.315l-0.897,1.315c1.419,1.001 2.941,1.523 4.652,1.523c2.816,0 4.652,-1.565 4.652,-4.256l0,-10.034l-1.669,0Zm-3.087,8.615c-1.878,0 -2.962,-1.522 -2.962,-3.692c0,-2.149 1.084,-3.692 2.962,-3.692c1.815,0 3.025,1.543 3.025,3.692c0,2.17 -1.21,3.692 -3.025,3.692Z" style="fill:#5c626f;fill-rule:nonzero;"/><path d="M129.98,55.106c-1.294,1.231 -2.066,1.711 -3.38,1.711c-2.232,0 -3.212,-1.711 -3.317,-3.609l7.698,0c0.021,-0.188 0.042,-0.585 0.042,-0.793c0,-3.025 -1.669,-4.944 -4.631,-4.944c-3.004,0 -4.903,2.274 -4.903,5.486c0,3.213 1.961,5.361 5.09,5.361c1.669,0 2.963,-0.521 4.465,-2.127l-1.064,-1.085Zm-3.609,-6.196c1.794,0 2.795,1.189 2.879,2.963l-5.925,0c0.271,-1.899 1.377,-2.963 3.046,-2.963Z" style="fill:#5c626f;fill-rule:nonzero;"/><path d="M137.072,47.638c-1.21,0 -2.065,0.667 -2.545,1.669l0,-1.544l-1.689,0l0,10.263l1.794,0l0,-5.507c0,-2.086 1.022,-3.275 2.399,-3.275c0.396,0 0.813,0.063 1.335,0.209l0.333,-1.502c-0.458,-0.167 -1.022,-0.313 -1.627,-0.313Z" style="fill:#5c626f;fill-rule:nonzero;"/></g><g><path d="M96.755,29.053c0,2.923 2.373,5.295 5.295,5.295c2.923,0 5.295,-2.372 5.295,-5.295l0,-23.649c0,-2.923 -2.372,-5.295 -5.295,-5.295c-2.922,0 -5.295,2.372 -5.295,5.295l0,23.649Z" style="fill:#7c7f90;"/><path d="M81.708,29.053c0,2.923 2.373,5.295 5.295,5.295c2.923,0 5.295,-2.372 5.295,-5.295l0,-11.551c0,-2.922 -2.372,-5.295 -5.295,-5.295c-2.922,0 -5.295,2.373 -5.295,5.295l0,11.551Z" style="fill:#7c7f90;"/><path d="M66.661,29.053c0,2.923 2.372,5.295 5.295,5.295c2.922,0 5.295,-2.372 5.295,-5.295l0,-23.649c0,-2.923 -2.373,-5.295 -5.295,-5.295c-2.923,0 -5.295,2.372 -5.295,5.295l0,23.649Z" style="fill:#7c7f90;"/><path d="M53.118,0.109c2.927,0.005 5.295,2.375 5.295,5.295c0,2.919 -2.368,5.29 -5.295,5.295l-11.032,0l0,18.354c0,2.923 -2.372,5.295 -5.295,5.295c-2.922,0 -5.295,-2.372 -5.295,-5.295l0,-23.649c0,-1.441 0.577,-2.749 1.512,-3.7l0.04,-0.044c0,0 0.112,-0.101 0.112,-0.101c0.945,-0.9 2.224,-1.45 3.631,-1.45c0,0 16.327,0 16.327,0Zm3.368,17.935c-1.462,-2.53 -4.703,-3.399 -7.234,-1.938c-2.531,1.461 -3.399,4.703 -1.938,7.234l4.828,8.361c1.461,2.531 4.702,3.399 7.233,1.938c2.531,-1.461 3.399,-4.702 1.938,-7.233l-4.827,-8.362Z" style="fill:#86ca2d;"/></g></g></svg>