<svg width="3476" height="777" viewBox="0 0 3476 777" xmlns="http://www.w3.org/2000/svg"><title>Slice 1</title><g fill="none" fill-rule="evenodd"><path d="M1392.606 608.15l-89.82-169.014-91.871 169.014h-98.79l140.07-218.13-126.054-216.788h100.156l81.786 164.704 88.624-164.704h91.611l-129.472 215.444 131.523 219.474h-97.763zm320.282 0v-47.335h-1.368c-24.385 37.151-58.909 55.727-103.575 55.727-34.411 0-61.53-9.176-81.356-27.528-19.826-18.576-29.74-43.418-29.74-74.527 0-66.694 38.172-104.63 114.514-113.806l102.208-13.764c0-46.775-22.105-70.162-66.315-70.163-42.16 0-80.9 12.757-116.223 38.271V286.54c13.217-7.833 32.132-14.882 56.743-21.15 24.841-6.266 47.401-9.399 67.684-9.4 90.243.001 135.364 44.762 135.365 134.284V608.15h-77.938zm-74.862-157.448c-23.472 2.91-39.994 8.617-49.565 17.121-9.344 8.281-14.016 21.15-14.016 38.607 0 14.323 5.356 26.073 16.067 35.25 10.71 8.951 24.725 13.428 42.044 13.428 23.473 0 42.843-7.946 58.112-23.836 15.268-15.89 22.903-35.697 22.903-59.42v-30.886l-75.545 9.736zm656.792 157.448V414.11c-.002-32.004-5.128-55.728-15.383-71.17-10.028-15.667-28.031-23.5-54.01-23.5-20.738 0-38.17 9.4-52.3 28.2-14.129 18.576-21.194 41.068-21.194 67.477V608.15h-78.962V407.396c0-58.637-22.903-87.956-68.708-87.956-21.421 0-39.083 8.84-52.985 26.52-13.673 17.682-20.509 40.734-20.509 69.157V608.15h-78.963V264.384h78.963v53.042h1.368c25.296-40.957 62.213-61.435 110.754-61.435 23.243 0 43.753 6.043 61.53 18.128 18.002 11.862 30.65 28.312 37.942 49.35 26.663-44.985 65.86-67.478 117.59-67.478 76.114 0 114.17 46.552 114.172 139.655V608.15h-79.305zm341.817 0v-47.335h-1.368c-24.384 37.151-58.91 55.727-103.575 55.727-34.411 0-61.53-9.176-81.356-27.528-19.826-18.576-29.74-43.418-29.74-74.527 0-66.694 38.172-104.63 114.515-113.806l102.207-13.764c0-46.775-22.105-70.162-66.315-70.163-42.16 0-80.9 12.757-116.223 38.271V286.54c13.218-7.833 32.132-14.882 56.744-21.15 24.84-6.266 47.4-9.399 67.682-9.4 90.244.001 135.365 44.762 135.366 134.284V608.15h-77.938.001zm-74.861-157.448c-23.474 2.91-39.995 8.617-49.566 17.121-9.344 8.281-14.015 21.15-14.015 38.607 0 14.323 5.355 26.073 16.066 35.25 10.71 8.951 24.725 13.428 42.045 13.428 23.472 0 42.843-7.946 58.112-23.836 15.268-15.89 22.902-35.697 22.902-59.42v-30.886l-75.544 9.736zm417.301-110.784c-12.989-7.833-28.258-11.75-45.805-11.75-22.79 0-41.361 9.624-55.719 28.871-14.128 19.248-21.193 44.314-21.193 75.2v175.91h-78.963V264.385h78.963v66.806h1.368c16.863-48.566 46.717-72.849 89.56-72.85 13.9.001 24.498 1.567 31.79 4.7v76.878h-.001zm78.608-152.412c-13.445 0-24.84-4.252-34.183-12.757-9.343-8.728-14.014-19.359-14.014-31.892 0-12.98 4.671-23.835 14.014-32.564 9.344-8.728 20.738-13.092 34.183-13.093 13.673.001 25.182 4.477 34.525 13.429 9.343 8.729 14.015 19.471 14.015 32.228 0 12.533-4.672 23.164-14.015 31.892-9.343 8.505-20.852 12.758-34.525 12.757zm-40.336 420.644V264.384h78.963V608.15h-78.963zm377.397 0V415.117c0-63.785-23.359-95.677-70.074-95.677-23.474 0-43.186 8.84-59.138 26.52-15.724 17.458-23.586 39.727-23.586 66.807V608.15h-78.964V264.384h78.964v55.056h1.368c25.524-42.3 63.352-63.449 113.487-63.45 77.939.001 116.906 47 116.908 140.999v211.16h-78.964zM257.25 0c-23.986.05-47.465 13.438-59.539 33.861L9.915 354.64c-11.887 20.478-11.887 47.244 0 67.722L197.71 743.14c12.076 20.423 35.553 33.815 59.539 33.861h375.59c23.986-.05 47.464-13.438 59.54-33.861L880.176 422.36c11.886-20.478 11.885-47.244 0-67.722L692.38 33.86C680.304 13.438 656.826.046 632.84 0H257.25zm3.408 187.659a8.282 8.282 0 0 1 1.575 0h64.784c2.868.058 5.65 1.688 7.081 4.135l109.898 192.57c.553.952.91 2.013 1.045 3.102a8.197 8.197 0 0 1 1.045-3.102l109.635-192.57c1.477-2.522 4.39-4.16 7.343-4.135h64.784c5.737.05 10.033 7.155 7.344 12.148L527.92 388.5l107.273 188.434c2.943 5.023-1.459 12.457-7.344 12.407h-64.784c-3.005-.025-5.935-1.777-7.343-4.394l-109.635-192.57a8.204 8.204 0 0 1-1.045-3.101 8.197 8.197 0 0 1-1.045 3.101l-109.898 192.57c-1.367 2.543-4.163 4.279-7.081 4.394h-64.784c-5.885.05-10.286-7.384-7.343-12.407L362.163 388.5 254.89 199.807c-2.572-4.556.566-11.176 5.768-12.148z" fill="#3498DB"/><path d="M1392.606 608.15l-89.82-169.014-91.871 169.014h-98.79l140.07-218.13-126.054-216.788h100.156l81.786 164.704 88.624-164.704h91.611l-129.472 215.444 131.523 219.474h-97.763zm320.282 0v-47.335h-1.368c-24.385 37.151-58.909 55.727-103.575 55.727-34.411 0-61.53-9.176-81.356-27.528-19.826-18.576-29.74-43.418-29.74-74.527 0-66.694 38.172-104.63 114.514-113.806l102.208-13.764c0-46.775-22.105-70.162-66.315-70.163-42.16 0-80.9 12.757-116.223 38.271V286.54c13.217-7.833 32.132-14.882 56.743-21.15 24.841-6.266 47.401-9.399 67.684-9.4 90.243.001 135.364 44.762 135.365 134.284V608.15h-77.938zm-74.862-157.448c-23.472 2.91-39.994 8.617-49.565 17.121-9.344 8.281-14.016 21.15-14.016 38.607 0 14.323 5.356 26.073 16.067 35.25 10.71 8.951 24.725 13.428 42.044 13.428 23.473 0 42.843-7.946 58.112-23.836 15.268-15.89 22.903-35.697 22.903-59.42v-30.886l-75.545 9.736zm656.792 157.448V414.11c-.002-32.004-5.128-55.728-15.383-71.17-10.028-15.667-28.031-23.5-54.01-23.5-20.738 0-38.17 9.4-52.3 28.2-14.129 18.576-21.194 41.068-21.194 67.477V608.15h-78.962V407.396c0-58.637-22.903-87.956-68.708-87.956-21.421 0-39.083 8.84-52.985 26.52-13.673 17.682-20.509 40.734-20.509 69.157V608.15h-78.963V264.384h78.963v53.042h1.368c25.296-40.957 62.213-61.435 110.754-61.435 23.243 0 43.753 6.043 61.53 18.128 18.002 11.862 30.65 28.312 37.942 49.35 26.663-44.985 65.86-67.478 117.59-67.478 76.114 0 114.17 46.552 114.172 139.655V608.15h-79.305zm341.817 0v-47.335h-1.368c-24.384 37.151-58.91 55.727-103.575 55.727-34.411 0-61.53-9.176-81.356-27.528-19.826-18.576-29.74-43.418-29.74-74.527 0-66.694 38.172-104.63 114.515-113.806l102.207-13.764c0-46.775-22.105-70.162-66.315-70.163-42.16 0-80.9 12.757-116.223 38.271V286.54c13.218-7.833 32.132-14.882 56.744-21.15 24.84-6.266 47.4-9.399 67.682-9.4 90.244.001 135.365 44.762 135.366 134.284V608.15h-77.938.001zm-74.861-157.448c-23.474 2.91-39.995 8.617-49.566 17.121-9.344 8.281-14.015 21.15-14.015 38.607 0 14.323 5.355 26.073 16.066 35.25 10.71 8.951 24.725 13.428 42.045 13.428 23.472 0 42.843-7.946 58.112-23.836 15.268-15.89 22.902-35.697 22.902-59.42v-30.886l-75.544 9.736zm417.301-110.784c-12.989-7.833-28.258-11.75-45.805-11.75-22.79 0-41.361 9.624-55.719 28.871-14.128 19.248-21.193 44.314-21.193 75.2v175.91h-78.963V264.385h78.963v66.806h1.368c16.863-48.566 46.717-72.849 89.56-72.85 13.9.001 24.498 1.567 31.79 4.7v76.878h-.001zm78.608-152.412c-13.445 0-24.84-4.252-34.183-12.757-9.343-8.728-14.014-19.359-14.014-31.892 0-12.98 4.67-23.835 14.014-32.564 9.344-8.728 20.738-13.092 34.183-13.093 13.673.001 25.182 4.477 34.525 13.429 9.343 8.729 14.015 19.471 14.015 32.228 0 12.533-4.672 23.164-14.015 31.892-9.343 8.505-20.852 12.758-34.525 12.757zm-40.336 420.644V264.384h78.963V608.15h-78.963zm377.397 0V415.117c0-63.785-23.359-95.677-70.074-95.677-23.474 0-43.186 8.84-59.138 26.52-15.724 17.458-23.586 39.727-23.586 66.807V608.15h-78.964V264.384h78.964v55.056h1.368c25.524-42.3 63.352-63.449 113.487-63.45 77.938.001 116.906 47 116.908 140.999v211.16h-78.964z" fill="#737373"/></g></svg>